<svg xmlns="http://www.w3.org/2000/svg" viewBox="0 0 496.158 496.158">
  <path d="M248.075 230.73c-109.945 0-199.066 28.89-199.066 64.525 0 35.628 89.12 64.517 199.065 64.517s199.074-28.888 199.074-64.517c0-35.635-89.13-64.524-199.075-64.524z" fill="#C1C1C1"/>
  <g fill="#DDD">
    <ellipse cx="248.079" cy="177.569" rx="148.56" ry="41.19"/>
    <path d="M248.075 245.237c-99.633 0-180.398 22.393-180.398 50.02 0 27.617 80.766 50.01 180.398 50.01 99.64 0 180.406-22.393 180.406-50.01 0-27.627-80.764-50.02-180.405-50.02z"/>
    <path d="M396.64 177.576H99.51L68.617 292.31h358.916"/>
  </g>
  <path d="M248.075 146.117c-68.533 0-124.083 15.4-124.083 34.404 0 18.997 55.55 34.397 124.083 34.397s124.09-15.4 124.09-34.396c0-19.003-55.557-34.403-124.09-34.403z" fill="#C4C4C4"/>
  <path d="M248.075 146.117c-68.533 0-124.083 15.4-124.083 34.404 0 18.997 55.55 34.397 124.083 34.397s124.09-15.4 124.09-34.396c0-19.003-55.557-34.403-124.09-34.403z" fill="#C4C4C4"/>
  <path d="M258.19 185.808l-30.894-13.167c-2.9-1.238-6.25.116-7.49 3.008l-6.702 15.745c-1.24 2.892.107 6.243 3.007 7.475l30.9 13.174c2.893 1.23 6.244-.115 7.476-3.014l6.71-15.737c1.24-2.9-.107-6.25-3.007-7.482z" fill="#663514"/>
  <path d="M248.075 146.117c-68.533 0-124.083 15.4-124.083 34.404 0 18.997 55.55 34.397 124.083 34.397s124.09-15.4 124.09-34.396c0-19.003-55.557-34.403-124.09-34.403z" fill="#919191"/>
  <g fill="#843C0B">
    <path d="M248.343 174.615l-22.033-42.3c-2.065-3.97-6.958-5.508-10.937-3.443l-21.544 11.23c-3.96 2.063-5.505 6.952-3.436 10.922l22.037 42.303c2.063 3.963 6.955 5.5 10.918 3.435l21.556-11.223c3.963-2.07 5.505-6.954 3.44-10.925zM348.24 141.848l-23.182-7.272c-4.262-1.335-8.806 1.03-10.148 5.306l-14.287 45.505c-1.343 4.26 1.032 8.81 5.302 10.145l23.185 7.283c4.266 1.34 8.806-1.033 10.148-5.302l14.29-45.5c1.34-4.27-1.032-8.82-5.31-10.165z"/>
  </g>
  <path d="M327.617 162.47l-43.887-18.702c-4.116-1.756-8.875.16-10.627 4.276l-9.528 22.35c-1.748 4.113.164 8.868 4.284 10.624l43.87 18.702c4.12 1.748 8.875-.165 10.627-4.273l9.53-22.354c1.748-4.117-.165-8.875-4.27-10.623z" fill="#421E06"/>
  <path d="M276.8 194.552l-12.605-46.002c-1.183-4.31-5.635-6.855-9.954-5.67l-23.433 6.42c-4.314 1.178-6.854 5.634-5.672 9.95l12.604 46c1.185 4.312 5.642 6.856 9.952 5.674l23.434-6.426c4.315-1.178 6.86-5.63 5.673-9.946z" fill="#B04902"/>
  <path d="M274.855 187.885l-20.373-13.235c-3.75-2.44-8.768-1.38-11.204 2.375l-24.01 36.952c9.248.604 18.884.94 28.807.94 6.507 0 12.895-.14 19.13-.408l10.02-15.42c2.443-3.75 1.38-8.768-2.37-11.205z" fill="#421E06"/>
  <path d="M358.927 173.353l-47.62-2.74c-4.464-.26-8.3 3.153-8.554 7.617l-1.4 24.256c-.213 3.883 2.33 7.28 5.938 8.27 27.577-4.16 48.808-11.138 58.72-19.53l.534-9.323c.26-4.465-3.15-8.298-7.617-8.55z" fill="#B04902"/>
  <path d="M255.615 165.893l-46.775-9.356c-4.38-.88-8.656 1.966-9.53 6.346l-4.77 23.827c-.88 4.392 1.97 8.653 6.343 9.53l46.775 9.36c4.392.88 8.664-1.967 9.528-6.35l4.77-23.825c.88-4.383-1.96-8.652-6.34-9.532z" fill="#9D633C"/>
  <g fill="#919191">
    <path d="M126.383 187.25c.47.658.998 1.312 1.603 1.955-.6-.643-1.133-1.297-1.603-1.955zM147.693 200.726c4.36 1.668 9.25 3.213 14.59 4.63-5.34-1.417-10.23-2.966-14.59-4.63zM125.2 185.272c.245.497.54.987.86 1.477-.32-.487-.61-.98-.86-1.478zM123.992 180.52c0-.74.114-1.476.28-2.21-.173.735-.28 1.47-.28 2.21zM124.35 178.02c.192-.705.44-1.4.773-2.09-.332.69-.588 1.386-.772 2.09z"/>
  </g>
  <g fill="#9D633C">
    <path d="M125.128 175.915c-.004.008-.004.008-.004.016 0-.007.004-.01.008-.015h-.004z"/>
    <path d="M178.877 191.73l-43.888-18.7c-3.62-1.544-7.728-.252-9.858 2.885-.004.004-.008.008-.008.016-.333.69-.58 1.386-.772 2.09-.023.1-.058.194-.08.29-.173.734-.28 1.47-.28 2.21 0 .686.093 1.367.237 2.043.042.207.11.413.168.62.134.475.294.957.497 1.43.096.22.195.44.306.66.25.496.54.99.862 1.476.11.167.202.335.32.5.472.658 1 1.312 1.604 1.955.065.062.142.13.203.195.554.578 1.16 1.144 1.82 1.706.19.165.4.333.603.497.59.478 1.213.953 1.878 1.427.216.153.43.306.655.46.826.562 1.698 1.116 2.628 1.667.065.038.122.077.188.11 1.072.625 2.208 1.237 3.405 1.84.054.028.115.055.17.082 1.108.554 2.274 1.093 3.483 1.624.207.092.417.184.624.272 1.166.5 2.375.998 3.63 1.48l.42.16c4.36 1.665 9.25 3.214 14.59 4.63.107.03.21.057.314.084 5.42 1.43 11.303 2.724 17.584 3.864l2.965-6.947c1.748-4.12-.164-8.876-4.268-10.628z"/>
  </g>
  <path d="M183.195 209.838c14.517 2.48 31.015 4.14 48.676 4.774-17.664-.635-34.162-2.3-48.675-4.774z" fill="#919191"/>
  <path d="M236.263 196.78l-18.655-15.57c-3.42-2.86-8.526-2.402-11.396 1.033l-23.036 27.595h.012c14.52 2.475 31.02 4.14 48.684 4.774.02.004.043.004.062.008l5.363-6.426c2.868-3.436 2.397-8.547-1.034-11.415z" fill="#632D08"/>
  <g fill="#919191">
    <path d="M300.856 211.65c4.682-.61 9.19-1.3 13.533-2.065-4.342.765-8.856 1.454-13.534 2.066zM277.996 213.9c5.1-.348 10.072-.788 14.9-1.308-4.832.52-9.8.96-14.9 1.308z"/>
  </g>
  <g fill="#843C0B">
    <path d="M321.245 208.292c.038-.007.076-.01.11-.02v-.003l-.11.022zM320.8 181.967c-.75-4.41-4.93-7.375-9.33-6.625l-47.022 8.002c-4.41.75-7.38 4.935-6.63 9.345l3.75 22.02c2.593-.08 5.16-.183 7.703-.305.384-.015.763-.038 1.146-.053 2.402-.123 4.79-.26 7.142-.42.146-.01.294-.017.44-.032 5.1-.348 10.07-.788 14.898-1.308.333-.035.666-.07 1-.107 2.248-.25 4.47-.513 6.654-.796.1-.016.203-.024.307-.04 4.678-.61 9.19-1.3 13.533-2.065.27-.046.543-.096.812-.145 2.058-.367 4.077-.746 6.044-1.148l.11-.023c.43-1.21 1.12-2.334 2.177-3.245l1.036-.907-3.77-22.15z"/>
  </g>
  <path d="M369.312 173.184c-2.953-1.943-6.935-1.813-9.735.612l-35.01 30.323-1.035.906c-1.056.91-1.748 2.035-2.177 3.248 30.8-6.262 50.81-16.356 50.81-27.752 0-2.522-1-4.974-2.853-7.338z" fill="#9D633C"/>
  <path d="M188.164 137.15l-23.98-3.894c-4.406-.715-8.568 2.28-9.288 6.694l-7.646 47.08c-.72 4.416 2.28 8.577 6.694 9.29l23.984 3.9c4.414.712 8.572-2.28 9.292-6.694l7.65-47.082c.72-4.412-2.28-8.574-6.706-9.293z" fill="#5B2C12"/>
  <path d="M216.22 188.248L202.94 167.9c-2.444-3.74-7.467-4.8-11.216-2.36l-39.936 26.074c-3.194 2.08-4.41 6.028-3.194 9.467 12.114 4.496 28.108 8.137 46.596 10.555l18.667-12.18c3.747-2.44 4.803-7.466 2.36-11.207z" fill="#421E06"/>
</svg>