<svg xmlns="http://www.w3.org/2000/svg" xmlns:xlink="http://www.w3.org/1999/xlink" viewBox="30.539 2.103 162.534 345.837" width="158.53" height="341.84">
  <defs>
    <path d="M111.29 82.68c-21.96 0-39.79-17.82-39.79-39.79 0-21.95 17.83-39.79 39.79-39.79 21.97 0 39.79 17.84 39.79 39.79 0 21.97-17.82 39.79-39.79 39.79z" id="a"/>
    <path d="M177.3 125.76c.01 85.48-66.01 127.9-66.01 130.25 0-2.35-66.01-44.77-66.01-130.25 0-30.86 14.77-55.88 33.01-55.88 18.22 0 33 21.92 33 52.79 0-30.86 14.78-52.79 33.01-52.79 18.23 0 33 25.02 33 55.88z" id="b"/>
    <path d="M142.04 82.64v184.42c0 7.05-5.72 12.77-12.77 12.77H93.32c-7.06 0-12.78-5.72-12.78-12.77V82.64c0-7.05 5.72-12.76 12.78-12.76h35.95c8.51 3.81 12.77 8.06 12.77 12.76z" id="c"/>
    <path d="M111.29 93.69l58.79 71.1-22.46 115.04H74.96L52.51 164.79l58.78-71.1z" id="d"/>
    <path d="M111.29 223.76l55.16 46.29-21.06 74.89h-68.2l-21.06-74.89 55.16-46.29z" id="e"/>
    <path d="M119.67 78.91c.78 6.69 7.03 60.16 7.81 66.85 1.06 8.97-5.37 17.1-14.35 18.15-14.35 1.68-41.16 4.81-55.51 6.49-8.98 1.05-17.11-5.38-18.15-14.36-1.95-16.62-5.87-50.22-7.82-66.83-1.05-8.99 5.37-17.11 14.36-18.17 14.35-1.67 41.15-4.8 55.5-6.48 8.98-1.05 17.12 5.38 18.16 14.35z" id="f"/>
    <path d="M101.93 78.91c-.78 6.69-7.03 60.16-7.81 66.85-1.05 8.97 5.38 17.1 14.36 18.15 14.35 1.68 41.15 4.81 55.5 6.49 8.99 1.05 17.11-5.38 18.17-14.36 1.94-16.62 5.87-50.22 7.81-66.83 1.05-8.99-5.38-17.11-14.36-18.17-14.35-1.67-41.15-4.8-55.51-6.48-8.98-1.05-17.11 5.38-18.16 14.35z" id="g"/>
  </defs>
  <use xlink:href="#a" fill="crimson"/>
  <use xlink:href="#a" fill-opacity="0" stroke="#000" stroke-opacity="0"/>
  <use xlink:href="#b" fill="crimson"/>
  <use xlink:href="#b" fill-opacity="0" stroke="#000" stroke-opacity="0"/>
  <use xlink:href="#c" fill="crimson"/>
  <use xlink:href="#c" fill-opacity="0" stroke="#000" stroke-opacity="0"/>
  <use xlink:href="#d" fill="crimson"/>
  <use xlink:href="#d" fill-opacity="0" stroke="#000" stroke-opacity="0"/>
  <g>
    <use xlink:href="#e" fill="crimson"/>
    <use xlink:href="#e" fill-opacity="0" stroke="#000" stroke-opacity="0"/>
  </g>
  <g>
    <use xlink:href="#f" fill="crimson"/>
    <use xlink:href="#f" fill-opacity="0" stroke="#000" stroke-opacity="0"/>
  </g>
  <g>
    <use xlink:href="#g" fill="crimson"/>
    <use xlink:href="#g" fill-opacity="0" stroke="#000" stroke-opacity="0"/>
  </g>
</svg>