<svg xmlns="http://www.w3.org/2000/svg" width="128" height="128" viewBox="0 0 128 128">
  <path fill="#A67C52" d="M63.98 30.004c-14.03 0-25.403 10.743-25.403 23.996v16.496c0 .23.016.443.04.654.295 9.617 6.362 26.846 25.362 26.846 20 0 25.067-17.23 25.362-26.846.024-.21.04-.426.04-.654V54c0-13.253-11.372-23.996-25.403-23.996z"/>
  <path fill="#A67C52" d="M83.417 38.507c2.667-.917 13.187.323 16.104 8.573s1.167 20.25 3 25.25-2.333 6.418-3.833 6.334-10.5.666-11.166-14.25c-.666-14.918-4.103-25.907-4.103-25.907z"/>
  <path fill="#99724C" d="M102.52 72.33c-1.833-5-.083-17-3-25.25-2.874-8.128-13.113-9.447-15.966-8.607 4.144.676 9.562 3.044 11.526 8.607 2.917 8.25 1.167 20.25 3 25.25 1.354 3.695-.565 5.43-2.27 6.053 1.34.3 2.434.258 2.874.28 1.504.085 5.67-1.333 3.837-6.333z"/>
  <path fill="#99724C" d="M63.98 30.004c-.437 0-.868.01-1.3.03C76.107 30.675 86.784 41.16 86.784 54v16.496c0 .23-.017.443-.04.654-.288 9.397-5.146 26.058-24.033 26.81.42.02.836.036 1.27.036 20 0 25.067-17.23 25.362-26.846.024-.21.04-.426.04-.654V54c0-13.253-11.372-23.996-25.403-23.996z"/>
  <path fill="#99724C" d="M85.736 38.255c-.99-.02-1.805.074-2.32.25l.023.075c3.706 4.17 5.94 9.547 5.94 15.42v16.495c0 .23-.016.444-.04.653-.016.506-.048 1.035-.09 1.578.628 1.38 1.378 2.44 2.185 3.25.3-1.728.457-3.365.502-4.828.023-.21.04-.426.04-.653V54c.002-6.027-2.356-11.53-6.24-15.745z"/>
  <path fill="#F5F5F5" d="M63.98 30.004c-1.236 0-2.45.088-3.64.25.84 3.83 1.64 8.583 1.64 11.742 0 29.09-14.208 37.783-14.456 49.89 3.88 3.616 9.23 6.11 16.455 6.11 7.317 0 12.63-2.313 16.448-5.71.063-12.317-14.45-20.884-14.45-50.29 0-3.16.8-7.913 1.64-11.743-1.188-.16-2.403-.25-3.64-.25z"/>
  <path fill="#EDEDED" d="M57.052 64.378c0 2.548-2.065 4.618-4.618 4.618-2.554 0-4.62-2.07-4.62-4.618 0-2.558 2.066-4.62 4.62-4.62 2.552 0 4.618 2.062 4.618 4.62z"/>
  <circle fill="#242424" cx="52.434" cy="64.378" r="2.31"/>
  <path fill="#EDEDED" d="M80.146 64.378c0 2.548-2.065 4.618-4.62 4.618-2.552 0-4.617-2.07-4.617-4.618 0-2.558 2.064-4.62 4.617-4.62s4.62 2.062 4.62 4.62z"/>
  <circle fill="#242424" cx="75.527" cy="64.378" r="2.31"/>
  <path fill="#A67C52" d="M44.583 38.507c-2.667-.917-13.187.323-16.104 8.573s-1.167 20.25-3 25.25 2.333 6.418 3.833 6.334 10.5.666 11.166-14.25c.666-14.918 4.103-25.907 4.103-25.907z"/>
  <path fill="#242424" d="M65.61 87.95l6.93-6.93c.6-.6.82-1.477.583-2.286-.24-.813-.904-1.428-1.732-1.605-6.944-1.485-7.87-1.485-14.82 0-.827.177-1.492.793-1.73 1.604-.24.81-.017 1.688.58 2.287l6.93 6.93c.187.187.404.327.632.437v.71c-2.28.466-4 2.485-4 4.9 0 .552.446 1 1 1 .553 0 1-.448 1-1 0-1.655 1.346-3 3-3 1.653 0 3 1.345 3 3 0 .552.445 1 1 1 .553 0 1-.448 1-1 0-2.415-1.723-4.437-4-4.9v-.708c.224-.113.442-.25.63-.44z"/>
  <path fill="#99724C" d="M38.616 71.15c-.024-.21-.04-.426-.04-.654V54c0-5.904 2.262-11.306 6.005-15.486l.003-.007c-.522-.18-1.354-.272-2.364-.25-3.885 4.214-6.24 9.717-6.24 15.743v16.496c0 .23.016.443.04.654.045 1.457.225 3.093.56 4.813.787-.795 1.522-1.833 2.144-3.175-.055-.563-.092-1.113-.108-1.638z"/>
</svg>