<?xml version="1.0" encoding="UTF-8" standalone="no"?>
<!DOCTYPE svg PUBLIC "-//W3C//DTD SVG 1.1//EN" "http://www.w3.org/Graphics/SVG/1.1/DTD/svg11.dtd">
<svg version="1.1" xmlns="http://www.w3.org/2000/svg" xmlns:xlink="http://www.w3.org/1999/xlink" preserveAspectRatio="xMidYMid meet" viewBox="0 0 541 301" width="541" height="301"><defs><path d="M0 0L60 0L60 60L0 60L0 0Z" id="h4UWZ06eIb"></path><path d="M480 240L540 240L540 300L480 300L480 240Z" id="g2dQOscNu"></path><path d="M60 0L120 0L120 60L60 60L60 0Z" id="d1RYAQn1Mo"></path><path d="M120 0L180 0L180 60L120 60L120 0Z" id="d1gn2zs8Q1"></path><path d="M180 0L240 0L240 60L180 60L180 0Z" id="c6YgW4FfgZ"></path><path d="M240 0L300 0L300 60L240 60L240 0Z" id="b1wuTo5c0D"></path><path d="M300 0L360 0L360 60L300 60L300 0Z" id="a5AdL1oAjZ"></path><path d="M360 0L420 0L420 60L360 60L360 0Z" id="f5LJg2ImXh"></path><path d="M420 0L480 0L480 60L420 60L420 0Z" id="b1Z7Irx45D"></path><path d="M480 0L540 0L540 60L480 60L480 0Z" id="c4bSYxIkvM"></path><path d="M0 60L60 60L60 120L0 120L0 60Z" id="a5ELY4NITs"></path><path d="M60 60L120 60L120 120L60 120L60 60Z" id="b5Nfi5BijC"></path><path d="M120 60L180 60L180 120L120 120L120 60Z" id="eHooF6bDa"></path><path d="M180 60L240 60L240 120L180 120L180 60Z" id="e25Rws3rCt"></path><path d="M240 60L300 60L300 120L240 120L240 60Z" id="bvID0QQsv"></path><path d="M300 60L360 60L360 120L300 120L300 60Z" id="b29JjQFcIr"></path><path d="M360 60L420 60L420 120L360 120L360 60Z" id="b717Ii9U6u"></path><path d="M420 60L480 60L480 120L420 120L420 60Z" id="a189vNEz0D"></path><path d="M480 60L540 60L540 120L480 120L480 60Z" id="c1q1CJg35o"></path><path d="M0 120L60 120L60 180L0 180L0 120Z" id="c4zh9z8ynt"></path><path d="M60 120L120 120L120 180L60 180L60 120Z" id="bCSKNP1iA"></path><path d="M120 120L180 120L180 180L120 180L120 120Z" id="j2UVusTi0K"></path><path d="M180 120L240 120L240 180L180 180L180 120Z" id="a1CvNppuHz"></path><path d="M240 120L300 120L300 180L240 180L240 120Z" id="a8yanWYyac"></path><path d="M300 120L360 120L360 180L300 180L300 120Z" id="kO1iO5oAN"></path><path d="M360 120L420 120L420 180L360 180L360 120Z" id="hPRSIokL5"></path><path d="M420 120L480 120L480 180L420 180L420 120Z" id="d2jMRMMX4X"></path><path d="M480 120L540 120L540 180L480 180L480 120Z" id="h3pB6G2DtA"></path><path d="M0 180L60 180L60 240L0 240L0 180Z" id="d1ZS21kc8l"></path><path d="M60 180L120 180L120 240L60 240L60 180Z" id="eim3UeLDu"></path><path d="M120 180L180 180L180 240L120 240L120 180Z" id="d1GxglqA1s"></path><path d="M180 180L240 180L240 240L180 240L180 180Z" id="c8aEaDa6o"></path><path d="M300 180L360 180L360 240L300 240L300 180Z" id="bCGErFGL1"></path><path d="M360 180L420 180L420 240L360 240L360 180Z" id="aEREgWPH"></path><path d="M420 180L480 180L480 240L420 240L420 180Z" id="bikegFJBu"></path><path d="M480 180L540 180L540 240L480 240L480 180Z" id="c6hg2AUUm"></path><path d="M0 240L60 240L60 300L0 300L0 240Z" id="iXmJnl6cW"></path><path d="M60 240L120 240L120 300L60 300L60 240Z" id="b4nwScOtgf"></path><path d="M120 240L180 240L180 300L120 300L120 240Z" id="a117X7nDR8"></path><path d="M180 240L240 240L240 300L180 300L180 240Z" id="e3MTQeo3P8"></path><path d="M300 240L360 240L360 300L300 300L300 240Z" id="b2hcggqhrT"></path><path d="M360 240L420 240L420 300L360 300L360 240Z" id="f3Iq0UH5n"></path><path d="M420 240L480 240L480 300L420 300L420 240Z" id="a5WPL2j2IG"></path><path d="M240 180L300 180L300 240L240 240L240 180Z" id="akJBFxWGs"></path><path d="M240 240L300 240L300 300L240 300L240 240Z" id="a1MWz5deo"></path><path d="M60 -16.77L61 -16.77L61 334.23L60 334.23L60 -16.77Z" id="c19OsOzKNM"></path><path d="M120 -14.28L121 -14.28L121 336.72L120 336.72L120 -14.28Z" id="e1T302eMQC"></path><path d="M180 -14.28L181 -14.28L181 336.72L180 336.72L180 -14.28Z" id="a2sCz1g906"></path><path d="M240 -14.28L241 -14.28L241 336.72L240 336.72L240 -14.28Z" id="b2gaC8FFQP"></path><path d="M300 -14.28L301 -14.28L301 336.72L300 336.72L300 -14.28Z" id="bikSBkfwc"></path><path d="M360 -14.28L361 -14.28L361 336.72L360 336.72L360 -14.28Z" id="dryFTqfDa"></path><path d="M420 -23.13L421 -23.13L421 327.87L420 327.87L420 -23.13Z" id="f5f6dOCdx"></path><path d="M480 -14.28L481 -14.28L481 336.72L480 336.72L480 -14.28Z" id="a4vcObPCUd"></path><path d="M351 60L351 61.98L351 61.98L351 60L351 60Z" id="c3dNBv4rry"></path><path d="M-0.5 60L540.5 60L540.5 61L-0.5 61L-0.5 60Z" id="a3B77BMFo"></path><path d="M0 120L541 120L541 121L0 121L0 120Z" id="b27XoGIQD3"></path><path d="M0 180L541 180L541 181L0 181L0 180Z" id="aWlUjiz2a"></path><path d="M0 240L541 240L541 241L0 241L0 240Z" id="baipidlkL"></path></defs><g><g><g><use xlink:href="#h4UWZ06eIb" opacity="1" fill="#b9f790" fill-opacity="1"></use></g><g><use xlink:href="#g2dQOscNu" opacity="1" fill="#f790db" fill-opacity="1"></use></g><g><use xlink:href="#d1RYAQn1Mo" opacity="1" fill="#b9f790" fill-opacity="1"></use></g><g><use xlink:href="#d1gn2zs8Q1" opacity="1" fill="#b9f790" fill-opacity="1"></use></g><g><use xlink:href="#c6YgW4FfgZ" opacity="1" fill="#b9f790" fill-opacity="1"></use></g><g><use xlink:href="#b1wuTo5c0D" opacity="1" fill="#b9f790" fill-opacity="1"></use></g><g><use xlink:href="#a5AdL1oAjZ" opacity="1" fill="#f790db" fill-opacity="1"></use></g><g><use xlink:href="#f5LJg2ImXh" opacity="1" fill="#f790db" fill-opacity="1"></use></g><g><use xlink:href="#b1Z7Irx45D" opacity="1" fill="#f790db" fill-opacity="1"></use></g><g><use xlink:href="#c4bSYxIkvM" opacity="1" fill="#f790db" fill-opacity="1"></use></g><g><use xlink:href="#a5ELY4NITs" opacity="1" fill="#b9f790" fill-opacity="1"></use></g><g><use xlink:href="#b5Nfi5BijC" opacity="1" fill="#b9f790" fill-opacity="1"></use></g><g><use xlink:href="#eHooF6bDa" opacity="1" fill="#b9f790" fill-opacity="1"></use></g><g><use xlink:href="#e25Rws3rCt" opacity="1" fill="#b9f790" fill-opacity="1"></use></g><g><use xlink:href="#bvID0QQsv" opacity="1" fill="#b9f790" fill-opacity="1"></use></g><g><use xlink:href="#b29JjQFcIr" opacity="1" fill="#f790db" fill-opacity="1"></use></g><g><use xlink:href="#b717Ii9U6u" opacity="1" fill="#f790db" fill-opacity="1"></use></g><g><use xlink:href="#a189vNEz0D" opacity="1" fill="#f790db" fill-opacity="1"></use></g><g><use xlink:href="#c1q1CJg35o" opacity="1" fill="#f790db" fill-opacity="1"></use></g><g><use xlink:href="#c4zh9z8ynt" opacity="1" fill="#b9f790" fill-opacity="1"></use></g><g><use xlink:href="#bCSKNP1iA" opacity="1" fill="#b9f790" fill-opacity="1"></use></g><g><use xlink:href="#j2UVusTi0K" opacity="1" fill="#b9f790" fill-opacity="1"></use></g><g><use xlink:href="#a1CvNppuHz" opacity="1" fill="#b9f790" fill-opacity="1"></use></g><g><use xlink:href="#a8yanWYyac" opacity="1" fill="#b9f790" fill-opacity="1"></use></g><g><use xlink:href="#kO1iO5oAN" opacity="1" fill="#f790db" fill-opacity="1"></use></g><g><use xlink:href="#hPRSIokL5" opacity="1" fill="#f790db" fill-opacity="1"></use></g><g><use xlink:href="#d2jMRMMX4X" opacity="1" fill="#f790db" fill-opacity="1"></use></g><g><use xlink:href="#h3pB6G2DtA" opacity="1" fill="#f790db" fill-opacity="1"></use></g><g><use xlink:href="#d1ZS21kc8l" opacity="1" fill="#b9f790" fill-opacity="1"></use></g><g><use xlink:href="#eim3UeLDu" opacity="1" fill="#b9f790" fill-opacity="1"></use></g><g><use xlink:href="#d1GxglqA1s" opacity="1" fill="#b9f790" fill-opacity="1"></use></g><g><use xlink:href="#c8aEaDa6o" opacity="1" fill="#b9f790" fill-opacity="1"></use></g><g><use xlink:href="#bCGErFGL1" opacity="1" fill="#f790db" fill-opacity="1"></use></g><g><use xlink:href="#aEREgWPH" opacity="1" fill="#f790db" fill-opacity="1"></use></g><g><use xlink:href="#bikegFJBu" opacity="1" fill="#f790db" fill-opacity="1"></use></g><g><use xlink:href="#c6hg2AUUm" opacity="1" fill="#f790db" fill-opacity="1"></use></g><g><use xlink:href="#iXmJnl6cW" opacity="1" fill="#b9f790" fill-opacity="1"></use></g><g><use xlink:href="#b4nwScOtgf" opacity="1" fill="#b9f790" fill-opacity="1"></use></g><g><use xlink:href="#a117X7nDR8" opacity="1" fill="#b9f790" fill-opacity="1"></use></g><g><use xlink:href="#e3MTQeo3P8" opacity="1" fill="#b9f790" fill-opacity="1"></use></g><g><use xlink:href="#b2hcggqhrT" opacity="1" fill="#f790db" fill-opacity="1"></use></g><g><use xlink:href="#f3Iq0UH5n" opacity="1" fill="#f790db" fill-opacity="1"></use></g><g><use xlink:href="#a5WPL2j2IG" opacity="1" fill="#f790db" fill-opacity="1"></use></g><g><use xlink:href="#akJBFxWGs" opacity="1" fill="#f790db" fill-opacity="1"></use></g><g><use xlink:href="#a1MWz5deo" opacity="1" fill="#f790db" fill-opacity="1"></use></g><g><use xlink:href="#c19OsOzKNM" opacity="1" fill="#5f5f5f" fill-opacity="1"></use></g><g><use xlink:href="#e1T302eMQC" opacity="1" fill="#5f5f5f" fill-opacity="1"></use></g><g><use xlink:href="#a2sCz1g906" opacity="1" fill="#5f5f5f" fill-opacity="1"></use></g><g><use xlink:href="#b2gaC8FFQP" opacity="1" fill="#5f5f5f" fill-opacity="1"></use></g><g><use xlink:href="#bikSBkfwc" opacity="1" fill="#5f5f5f" fill-opacity="1"></use></g><g><use xlink:href="#dryFTqfDa" opacity="1" fill="#5f5f5f" fill-opacity="1"></use></g><g><use xlink:href="#f5f6dOCdx" opacity="1" fill="#5f5f5f" fill-opacity="1"></use></g><g><use xlink:href="#a4vcObPCUd" opacity="1" fill="#5f5f5f" fill-opacity="1"></use></g><g><use xlink:href="#c3dNBv4rry" opacity="1" fill="#5f5f5f" fill-opacity="1"></use></g><g><use xlink:href="#a3B77BMFo" opacity="1" fill="#945492" fill-opacity="1"></use></g><g><use xlink:href="#b27XoGIQD3" opacity="1" fill="#945492" fill-opacity="1"></use></g><g><use xlink:href="#aWlUjiz2a" opacity="1" fill="#945492" fill-opacity="1"></use></g><g><use xlink:href="#baipidlkL" opacity="1" fill="#945492" fill-opacity="1"></use></g></g></g></svg>