<?xml version="1.0" encoding="UTF-8" standalone="no"?>
<!-- Created with Inkscape (http://www.inkscape.org/) -->

<svg
   xmlns:dc="http://purl.org/dc/elements/1.1/"
   xmlns:cc="http://creativecommons.org/ns#"
   xmlns:rdf="http://www.w3.org/1999/02/22-rdf-syntax-ns#"
   xmlns:svg="http://www.w3.org/2000/svg"
   xmlns="http://www.w3.org/2000/svg"
   xmlns:xlink="http://www.w3.org/1999/xlink"
   xmlns:sodipodi="http://sodipodi.sourceforge.net/DTD/sodipodi-0.dtd"
   xmlns:inkscape="http://www.inkscape.org/namespaces/inkscape"
   width="360"
   height="360"
   id="svg2"
   version="1.1"
   inkscape:version="0.48.0 r9654"
   sodipodi:docname="cabbage.svg"
   inkscape:export-filename="C:\Documents and Settings\winxp\My Documents\Flash Cards\vegatables\cabbage.png"
   inkscape:export-xdpi="168.74847"
   inkscape:export-ydpi="168.74847">
  <defs
     id="defs4">
    <linearGradient
       id="linearGradient3886">
      <stop
         style="stop-color:#a9e97c;stop-opacity:1"
         offset="0"
         id="stop3888" />
      <stop
         id="stop3890"
         offset="0.71011418"
         style="stop-color:#67da57;stop-opacity:1;" />
      <stop
         style="stop-color:#0caf00;stop-opacity:1"
         offset="1"
         id="stop3892" />
    </linearGradient>
    <linearGradient
       id="linearGradient3873"
       inkscape:collect="always">
      <stop
         id="stop3875"
         offset="0"
         style="stop-color:#37c837;stop-opacity:1" />
      <stop
         id="stop3877"
         offset="1"
         style="stop-color:#00aa00;stop-opacity:1" />
    </linearGradient>
    <linearGradient
       id="linearGradient3825">
      <stop
         id="stop3827"
         offset="0"
         style="stop-color:#a9e97c;stop-opacity:1" />
      <stop
         style="stop-color:#67da57;stop-opacity:1;"
         offset="0.53624302"
         id="stop3831" />
      <stop
         id="stop3829"
         offset="1"
         style="stop-color:#0ecc00;stop-opacity:1" />
    </linearGradient>
    <linearGradient
       inkscape:collect="always"
       id="linearGradient3797">
      <stop
         style="stop-color:#afe9af;stop-opacity:1"
         offset="0"
         id="stop3799" />
      <stop
         style="stop-color:#00aa00;stop-opacity:1"
         offset="1"
         id="stop3801" />
    </linearGradient>
    <radialGradient
       inkscape:collect="always"
       xlink:href="#linearGradient3825"
       id="radialGradient3803"
       cx="493.76495"
       cy="469.33121"
       fx="493.76495"
       fy="469.33121"
       r="158.2253"
       gradientTransform="matrix(0.40335805,-0.85831487,1.3360859,0.62788266,-577.32341,1114.5671)"
       gradientUnits="userSpaceOnUse" />
    <radialGradient
       inkscape:collect="always"
       xlink:href="#linearGradient3797"
       id="radialGradient3819"
       cx="458.1651"
       cy="416.91812"
       fx="458.1651"
       fy="416.91812"
       r="160.63112"
       gradientTransform="matrix(0.61282061,-0.79022206,0.92320345,0.71594824,-479.28804,1003.5138)"
       gradientUnits="userSpaceOnUse" />
    <radialGradient
       inkscape:collect="always"
       xlink:href="#linearGradient3873"
       id="radialGradient3871"
       gradientUnits="userSpaceOnUse"
       gradientTransform="matrix(0.26730966,-0.81901464,1.1106262,0.36248572,-390.78754,1193.7248)"
       cx="524.86401"
       cy="495.38147"
       fx="524.86401"
       fy="495.38147"
       r="160.63112" />
    <radialGradient
       inkscape:collect="always"
       xlink:href="#linearGradient3886"
       id="radialGradient3884"
       gradientUnits="userSpaceOnUse"
       gradientTransform="matrix(0.44671348,-0.8365699,0.86109238,0.45980806,-372.3349,1183.8752)"
       cx="503.81631"
       cy="477.54691"
       fx="503.81631"
       fy="477.54691"
       r="158.2253" />
  </defs>
  <sodipodi:namedview
     id="base"
     pagecolor="#ffffff"
     bordercolor="#666666"
     borderopacity="1.0"
     inkscape:pageopacity="0.0"
     inkscape:pageshadow="2"
     inkscape:zoom="0.70710678"
     inkscape:cx="453.00952"
     inkscape:cy="660.21867"
     inkscape:document-units="px"
     inkscape:current-layer="layer1"
     showgrid="false"
     showguides="true"
     inkscape:guide-bbox="true"
     inkscape:window-width="1280"
     inkscape:window-height="749"
     inkscape:window-x="-4"
     inkscape:window-y="-4"
     inkscape:window-maximized="1" />
  <metadata
     id="metadata7">
    <rdf:RDF>
      <cc:Work
         rdf:about="">
        <dc:format>image/svg+xml</dc:format>
        <dc:type
           rdf:resource="http://purl.org/dc/dcmitype/StillImage" />
        <dc:title />
      </cc:Work>
    </rdf:RDF>
  </metadata>
  <g
     inkscape:label="Layer 1"
     inkscape:groupmode="layer"
     id="layer1"
     transform="translate(0,-692.36218)">
    <path
       style="fill:url(#radialGradient3819);fill-opacity:1;stroke:none"
       d="m 215.47775,732.25166 c -2.45797,-0.2489 -4.45659,-0.48569 -9.875,-0.75 -30.86347,-1.50554 -24.07046,-14.29981 -47.40625,-0.75 -23.3358,13.54982 -15.07322,11.27571 -37.65625,12.78125 -22.583029,1.50553 -6.77341,-21.82034 -42.906249,14.3125 -36.13284,36.13284 -39.125,30.10366 -39.125,44.40625 0,14.30258 -3.02295,12.78839 -5.28125,27.84375 -2.25831,15.05535 -6.03678,10.5384 -4.53125,25.59375 1.50554,15.05535 3.0166,7.53921 -1.5,30.875 -4.51661,23.33579 -7.51384,6.78644 -3.75,30.875 3.76384,24.08856 15.03759,27.8509 21.8125,42.90625 6.7749,15.05535 9.79116,27.08902 24.09375,36.875 14.30258,9.78599 16.56411,14.31809 33.124999,12.81259 16.56088,-1.5056 15.82876,-3.7924 36.90625,-0.7813 21.07749,3.0111 43.63491,9.0625 57.9375,9.0625 14.30258,0 27.11751,0.7437 37.65625,-6.0312 10.53875,-6.775 23.31608,-18.8134 30.84375,-27.09384 9.31195,-6.11097 14.81219,-10.3261 19.375,-14.0625 0.23506,-0.93029 0.38576,-1.88698 0.3125,-2.84375 -0.0878,-1.14604 -0.35948,-2.29411 -0.75,-3.40625 -0.39052,-1.11214 -0.8964,-2.18764 -1.4375,-3.1875 -0.5411,-0.99986 -1.11677,-1.90953 -1.65625,-2.71875 -0.30235,-0.45352 -0.79055,-0.78953 -1.25,-1.125 -0.45945,-0.33547 -0.89014,-0.67041 -1.0625,-1.1875 -0.27007,-0.8102 -0.32594,-1.64823 -0.21875,-2.46875 0.10719,-0.82052 0.38072,-1.62153 0.75,-2.4375 0.73856,-1.63195 1.87279,-3.25667 2.96875,-4.78125 1.09596,-1.52458 2.15543,-2.9517 2.6875,-4.25 0.26604,-0.64915 0.39143,-1.27346 0.34375,-1.84375 -0.0477,-0.57029 -0.27345,-1.08595 -0.75,-1.5625 -0.27253,-0.27253 -0.88372,0.27253 -1.15625,0 -0.63125,-0.63125 -0.9698,-1.06896 -1.125,-1.40625 -0.1552,-0.33729 -0.13302,-0.59517 -0.0625,-0.84375 0.0705,-0.24858 0.20407,-0.47862 0.25,-0.84375 0.0459,-0.36513 0.0102,-0.84433 -0.21875,-1.53125 -0.17237,-0.51709 -0.68552,-0.8396 -1.1875,-1.15625 -0.50198,-0.31665 -0.9928,-0.62747 -1.125,-1.15625 -0.28043,-1.12172 0.19009,-2.32823 0,-3.46875 l -1.15625,-3.46875 c -0.38542,-0.38542 -0.98389,-0.63916 -1.15625,-1.15625 -0.27461,-0.82382 -0.43685,-1.6786 -0.53125,-2.5625 -0.0944,-0.8839 -0.12808,-1.79195 -0.0937,-2.71875 0.0687,-1.85361 0.35039,-3.79649 0.625,-5.71875 0.27461,-1.92226 0.55635,-3.83389 0.625,-5.6875 0.0343,-0.9268 6.5e-4,-1.83485 -0.0937,-2.71875 -0.0944,-0.8839 -0.25664,-1.73868 -0.53125,-2.5625 -0.58989,-1.76968 -1.47537,-3.54331 -2.34375,-5.28125 -0.86838,-1.73794 -1.71966,-3.44022 -2.28125,-5.125 -0.17446,-0.52338 -0.15741,-1.41426 -0.0625,-2.46875 0.0949,-1.05449 0.26054,-2.28763 0.40625,-3.5 0.14571,-1.21237 0.27205,-2.40925 0.25,-3.40625 -0.0221,-0.997 -0.18537,-1.77911 -0.59375,-2.1875 -0.27253,-0.27253 -0.88372,0.27253 -1.15625,0 -0.34249,-0.34249 -0.49189,-1.21145 -0.53125,-2.34375 -0.0394,-1.1323 0.0195,-2.53272 0.125,-3.9375 0.21102,-2.80955 0.56535,-5.642 0.40625,-6.4375 -0.16901,-0.84507 -0.94723,-1.47641 -1.15625,-2.3125 -0.14022,-0.56086 0.01,-1.20579 0.125,-1.8125 0.11523,-0.60671 0.19569,-1.17522 -0.125,-1.65625 -0.8836,-1.32539 -1.82461,-2.53526 -2.65625,-3.8125 -0.83164,-1.27724 -1.5539,-2.62188 -1.96875,-4.28125 -0.16588,-0.66354 -2.01678,-7.79803 -2.3125,-8.09375 -0.47252,-0.47252 -0.97901,-0.69325 -1.5,-0.78125 -0.52099,-0.088 -1.05034,-0.0608 -1.625,0 -0.57466,0.0608 -1.17898,0.15113 -1.8125,0.125 -0.63352,-0.0261 -1.30243,-0.15121 -2,-0.5 -0.38541,-0.1927 -0.49068,-0.65481 -0.59375,-1.125 -0.10307,-0.47019 -0.20397,-0.94847 -0.5625,-1.1875 -0.73843,-0.49229 -1.39849,-1.04618 -1.96875,-1.625 -0.57026,-0.57882 -1.06658,-1.19175 -1.5,-1.84375 -0.86684,-1.304 -1.49259,-2.73345 -2,-4.25 -1.01483,-3.03311 -1.5443,-6.38289 -2.625,-9.625 -0.35134,-1.05401 -0.33783,-2.49756 -0.25,-3.96875 0.0878,-1.47119 0.25,-2.97003 0.25,-4.125 0,-4.32029 0.43386,-10.93059 0.65625,-17.34375 0.11119,-3.20658 0.17715,-6.35417 0.0937,-9.15625 -0.0834,-2.80208 -0.30523,-5.25215 -0.75,-7.03125 -0.0661,-0.26439 -0.35246,-0.43892 -0.625,-0.59375 -0.27254,-0.15483 -0.53125,-0.28997 -0.53125,-0.5625 0,-0.82345 0.73589,-3.25905 1.25,-5.71875 0.25706,-1.22985 0.44475,-2.49154 0.46875,-3.53125 0.024,-1.03971 -0.1124,-1.8624 -0.5625,-2.3125 -0.64172,-0.64172 -1.34833,-1.14228 -2.09375,-1.5625 -0.74542,-0.42022 -1.54161,-0.75645 -2.34375,-1.125 -0.80214,-0.36855 -1.6256,-0.76329 -2.4375,-1.25 -0.8119,-0.48671 -1.60031,-1.06906 -2.375,-1.84375 -1.14736,-1.14736 -2.43869,-2.78805 -3.65625,-4.46875 -1.21756,-1.6807 -2.36137,-3.40143 -3.28125,-4.78125 -0.21379,-0.32068 -0.0903,-0.75768 0.0312,-1.1875 0.12158,-0.42982 0.24128,-0.85247 -0.0312,-1.125 -0.13626,-0.13626 -0.39155,-0.0459 -0.625,0.0312 -0.23345,0.0772 -0.44506,0.14111 -0.53125,-0.0312 -0.17236,-0.34472 -0.0862,-0.75049 0,-1.15625 0.0862,-0.40576 0.17237,-0.81152 0,-1.15625 -0.0862,-0.17236 -0.28066,-0.16809 -0.5,-0.125 -0.21934,0.0431 -0.46355,0.125 -0.65625,0.125 l -1.15625,-2.3125 c -0.27253,-0.54506 -0.35555,-1.22056 -0.46875,-1.84375 -0.1132,-0.62319 -0.25659,-1.19409 -0.6875,-1.625 -0.59671,-0.5967 -1.85584,-1.39063 -3.0625,-2.21875 -1.20666,-0.82812 -2.36086,-1.69045 -2.71875,-2.40625 -0.28825,-0.57649 -1.03794,-4.50669 -1.15625,-4.625 -0.27253,-0.27253 -0.69518,-0.18408 -1.125,-0.0625 -0.42982,0.12158 -0.86681,0.27629 -1.1875,0.0625 -0.58873,-0.39248 -1.18889,-1.16461 -1.78125,-2.09375 -0.27878,-0.43728 -0.54407,-0.9711 -0.8125,-1.46875 z"
       id="path3867"
       inkscape:connector-curvature="0" />
    <path
       style="fill:url(#radialGradient3871);fill-opacity:1;stroke:none"
       d="m 215.47775,732.25166 c 0.26843,0.49765 0.53372,1.03147 0.8125,1.46875 0.59236,0.92914 1.19252,1.70127 1.78125,2.09375 0.32069,0.21379 0.75768,0.0591 1.1875,-0.0625 0.42982,-0.12158 0.85247,-0.21003 1.125,0.0625 0.11831,0.11831 0.868,4.04851 1.15625,4.625 0.35789,0.7158 1.51209,1.57813 2.71875,2.40625 1.20666,0.82812 2.46579,1.62205 3.0625,2.21875 0.43091,0.43091 0.5743,1.00181 0.6875,1.625 0.1132,0.62319 0.19622,1.29869 0.46875,1.84375 l 1.15625,2.3125 c 0.1927,0 0.43691,-0.0819 0.65625,-0.125 0.21934,-0.0431 0.41382,-0.0474 0.5,0.125 0.17237,0.34473 0.0862,0.75049 0,1.15625 -0.0862,0.40576 -0.17236,0.81153 0,1.15625 0.0862,0.17236 0.2978,0.10841 0.53125,0.0312 0.23345,-0.0772 0.48874,-0.16751 0.625,-0.0312 0.27253,0.27253 0.15283,0.69518 0.0312,1.125 -0.12158,0.42982 -0.24504,0.86682 -0.0312,1.1875 0.91988,1.37982 2.06369,3.10055 3.28125,4.78125 1.21756,1.6807 2.50889,3.32139 3.65625,4.46875 0.77469,0.77469 1.5631,1.35704 2.375,1.84375 0.8119,0.48671 1.63536,0.88145 2.4375,1.25 0.80214,0.36855 1.59833,0.70478 2.34375,1.125 0.74542,0.42022 1.45203,0.92078 2.09375,1.5625 0.4501,0.4501 0.5865,1.27279 0.5625,2.3125 -0.024,1.03971 -0.21169,2.3014 -0.46875,3.53125 -0.51411,2.4597 -1.25,4.8953 -1.25,5.71875 0,0.27253 0.25871,0.40767 0.53125,0.5625 0.27254,0.15483 0.5589,0.32936 0.625,0.59375 0.44477,1.7791 0.6666,4.22917 0.75,7.03125 0.0834,2.80208 0.0174,5.94967 -0.0937,9.15625 -0.22239,6.41316 -0.65625,13.02346 -0.65625,17.34375 0,1.15497 -0.16217,2.65381 -0.25,4.125 -0.0878,1.47119 -0.10134,2.91474 0.25,3.96875 1.0807,3.24211 1.61017,6.59189 2.625,9.625 0.50741,1.51655 1.13316,2.946 2,4.25 0.43342,0.652 0.92974,1.26493 1.5,1.84375 0.57026,0.57882 1.23032,1.13271 1.96875,1.625 0.35853,0.23903 0.45943,0.71731 0.5625,1.1875 0.10307,0.47019 0.20834,0.9323 0.59375,1.125 0.69757,0.34879 1.36648,0.47387 2,0.5 0.63352,0.0261 1.23784,-0.0642 1.8125,-0.125 0.57466,-0.0608 1.10401,-0.088 1.625,0 0.52099,0.088 1.02748,0.30873 1.5,0.78125 0.29572,0.29572 2.14662,7.43021 2.3125,8.09375 0.41485,1.65937 1.13711,3.00401 1.96875,4.28125 0.83164,1.27724 1.77265,2.48711 2.65625,3.8125 0.32069,0.48103 0.24023,1.04954 0.125,1.65625 -0.11523,0.60671 -0.26522,1.25164 -0.125,1.8125 0.20902,0.83609 0.98724,1.46743 1.15625,2.3125 0.1591,0.7955 -0.19523,3.62795 -0.40625,6.4375 -0.10551,1.40478 -0.16436,2.8052 -0.125,3.9375 0.0394,1.1323 0.18876,2.00126 0.53125,2.34375 0.27253,0.27253 0.88372,-0.27253 1.15625,0 0.40838,0.40839 0.5717,1.1905 0.59375,2.1875 0.0221,0.997 -0.10429,2.19388 -0.25,3.40625 -0.14571,1.21237 -0.31134,2.44551 -0.40625,3.5 -0.0949,1.05449 -0.11196,1.94537 0.0625,2.46875 0.56159,1.68478 1.41287,3.38706 2.28125,5.125 0.86838,1.73794 1.75386,3.51157 2.34375,5.28125 0.27461,0.82382 0.43685,1.6786 0.53125,2.5625 0.0944,0.8839 0.12808,1.79195 0.0937,2.71875 -0.0687,1.85361 -0.35039,3.76524 -0.625,5.6875 -0.27461,1.92226 -0.55635,3.86514 -0.625,5.71875 -0.0343,0.9268 -6.5e-4,1.83485 0.0937,2.71875 0.0944,0.8839 0.25664,1.73868 0.53125,2.5625 0.17236,0.51709 0.77083,0.77083 1.15625,1.15625 l 1.15625,3.46875 c 0.19009,1.14052 -0.28043,2.34703 0,3.46875 0.1322,0.52878 0.62302,0.8396 1.125,1.15625 0.50198,0.31665 1.01513,0.63916 1.1875,1.15625 0.22897,0.68692 0.26468,1.16612 0.21875,1.53125 -0.0459,0.36513 -0.17948,0.59517 -0.25,0.84375 -0.0705,0.24858 -0.0927,0.50646 0.0625,0.84375 0.1552,0.33729 0.49375,0.775 1.125,1.40625 0.27253,0.27253 0.88372,-0.27253 1.15625,0 0.47655,0.47655 0.70232,0.99221 0.75,1.5625 0.0477,0.57029 -0.0777,1.1946 -0.34375,1.84375 -0.53207,1.2983 -1.59154,2.72542 -2.6875,4.25 -1.09596,1.52458 -2.23019,3.1493 -2.96875,4.78125 -0.36928,0.81597 -0.64281,1.61698 -0.75,2.4375 -0.10719,0.82052 -0.0513,1.65855 0.21875,2.46875 0.17236,0.51709 0.60305,0.85203 1.0625,1.1875 0.45945,0.33547 0.94765,0.67148 1.25,1.125 0.53948,0.80922 1.11515,1.71889 1.65625,2.71875 0.5411,0.99986 1.04698,2.07536 1.4375,3.1875 0.39052,1.11214 0.66224,2.26021 0.75,3.40625 0.0733,0.95677 -0.0774,1.91346 -0.3125,2.84375 7.24047,-5.92908 11.46941,-10.34774 19.78125,-16.8125 13.54982,-10.53875 12.03205,-8.2801 20.3125,-25.59375 8.28044,-17.31365 9.0459,-6.75992 13.5625,-21.0625 4.51661,-14.30258 4.52491,-14.32518 -2.25,-27.875 -6.77491,-13.54981 -15.8042,-2.26349 -18.0625,-24.09375 -2.2583,-21.83026 12.02964,-12.03287 -4.53125,-28.59375 -16.56088,-16.56089 -10.52375,-10.53563 -21.0625,-26.34375 -10.53874,-15.80812 -0.01,5.27052 -14.3125,-17.3125 -14.30258,-22.58303 9.02883,-13.55778 -15.8125,-23.34375 -24.84133,-9.78598 -10.54751,-1.51545 -31.625,-14.3125 -17.37711,-10.55039 -4.17602,-12.36241 -15.71875,-13.53125 z"
       id="path3009"
       inkscape:connector-curvature="0" />
    <path
       style="fill:#d7f4d7;stroke:none"
       d="m 176.25416,723.96716 c 0,0 -26.34687,9.78598 -28.60517,30.86347 -2.2583,21.07749 -26.34686,21.83026 -26.34686,21.83026 0,0 18.06642,-5.26937 21.83026,-14.30258 3.76383,-9.03321 2.2583,-29.35794 24.08856,-38.39115 6.02214,-2.2583 9.03321,0 9.03321,0 z"
       id="path3835"
       inkscape:connector-curvature="0" />
    <path
       style="fill:#d7f4d7;stroke:none"
       d="m 112.26892,742.03358 c -16.560889,5.26938 -36.885609,39.14392 -37.638379,56.45757 -0.75277,17.31365 7.52768,24.08856 7.52768,24.08856 0,0 -13.54982,-20.32472 1.50553,-42.15498 15.05535,-21.83026 10.52208,-23.57191 33.105099,-37.12172 -0.98887,-2.98884 -4.49993,-1.26943 -4.49993,-1.26943 z"
       id="path3837"
       inkscape:connector-curvature="0"
       sodipodi:nodetypes="cscscc" />
    <path
       style="fill:#d7f4d7;stroke:none"
       d="m 110.76338,745.79742 c 0,0 -18.324749,31.81902 7.52768,39.89668 -1.98106,0.37857 -8.48556,-1.64524 -10.95621,-4.59416 -4.19299,-5.00468 -4.96835,-14.0286 -5.03483,-18.95106 -0.0328,-2.43092 1.89246,-10.37996 2.82509,-12.51113 1.29722,-2.96429 2.09154,-0.10692 5.63827,-3.84033 z"
       id="path3839"
       inkscape:connector-curvature="0"
       sodipodi:nodetypes="ccsssc" />
    <path
       style="fill:url(#radialGradient3803);fill-opacity:1;stroke:none"
       d="m 214.5715,735.25166 c -2.92917,1.92518 -5.81774,3.81095 -8.21875,4.53125 -7.52768,2.2583 -24.82795,2.23616 -37.625,6 -12.79705,3.76384 -13.55223,15.81331 -24.84375,24.09375 -11.29151,8.28045 -16.56769,6.04312 -40.65625,11.3125 -24.088559,5.26937 -15.788399,11.26465 -30.843749,15.78125 -15.05535,4.51661 -9.04866,11.29947 -12.8125,23.34375 -3.76384,12.04428 0.0103,9.04947 -11.28125,21.09375 -11.29152,12.04428 -12.81054,9.03483 -21.84375,16.5625 -9.03321,7.52768 -2.26107,14.28563 0.75,30.09375 3.01107,15.80811 -0.75277,7.52099 0,18.8125 0.75276,11.29152 9.79508,9.79474 6.03125,31.625 -3.76384,21.83026 6.02457,24.07795 24.84375,36.875 18.81919,12.79705 18.07323,14.33072 40.65625,26.37504 22.583029,12.0443 14.308579,7.5064 32.374999,14.2813 18.06643,6.7749 38.36555,11.3069 57.9375,12.8125 19.24556,1.4804 37.77873,3.5337 57,-22.875 -0.89269,-0.5788 -1.78437,-1.1595 -2.53125,-1.9063 -0.4309,-0.4309 -0.52014,-1.0983 -0.59375,-1.75 -0.0736,-0.6518 -0.13159,-1.2879 -0.5625,-1.7188 -0.13626,-0.1362 -0.39155,-0.046 -0.625,0.031 -0.23345,0.077 -0.44507,0.1411 -0.53125,-0.031 -0.17237,-0.3447 -0.0862,-0.75048 0,-1.15624 0.0862,-0.40576 0.17236,-0.81152 0,-1.15625 -0.24376,-0.48752 -0.70001,-0.82188 -1.15625,-1.15625 -0.45624,-0.33437 -0.9125,-0.66873 -1.15625,-1.15625 -0.50865,-1.0173 -1.03846,-2.95795 -1.3125,-4.96875 -0.13702,-1.0054 -0.20063,-2.02596 -0.1875,-2.96875 0.0131,-0.94279 0.11947,-1.7959 0.34375,-2.46875 0.48425,-1.45275 0.95414,-2.45762 1.4375,-3.15625 0.48336,-0.69863 0.9867,-1.11282 1.46875,-1.4375 0.48205,-0.32468 0.95718,-0.54411 1.4375,-0.875 0.48032,-0.33089 0.95932,-0.75148 1.4375,-1.46875 0,-3.27603 -0.20443,-3.38802 -0.15625,-2.90625 0.0241,0.24088 0.11377,0.639 0.3125,0.84375 0.0994,0.10238 0.2429,0.15361 0.40625,0.125 0.16335,-0.0286 0.35287,-0.13412 0.59375,-0.375 0.27253,-0.27253 0.2236,-0.67517 0.125,-1.09375 -0.0986,-0.41858 -0.24688,-0.85312 -0.125,-1.21875 0.13626,-0.40879 0.43251,-0.78805 0.6875,-1.15625 0.25499,-0.3682 0.46875,-0.72534 0.46875,-1.15625 0,-0.19271 -0.30469,-0.0963 -0.59375,0 -0.28906,0.0963 -0.5625,0.1927 -0.5625,0 0,-0.37574 0.59153,-1.51804 1.03125,-2.71875 0.21986,-0.60036 0.3856,-1.24147 0.4375,-1.78125 0.0519,-0.53978 -0.0112,-0.97993 -0.3125,-1.28125 -0.13626,-0.13626 -0.39155,-0.0459 -0.625,0.0312 -0.23345,0.0772 -0.44507,0.14111 -0.53125,-0.0312 -0.34473,-0.68946 -0.46274,-1.48019 -0.4375,-2.28125 0.0252,-0.80106 0.19374,-1.61248 0.4375,-2.34375 0.0862,-0.25855 0.38873,-0.43746 0.65625,-0.59375 0.26752,-0.15629 0.5,-0.28997 0.5,-0.5625 0,-0.19271 -0.23248,-0.12252 -0.5,-0.0312 -0.26752,0.0913 -0.57007,0.20361 -0.65625,0.0312 -0.14287,-0.28573 -0.23725,-1.84025 -0.25,-3.40625 -0.0127,-1.566 0.0561,-3.14353 0.25,-3.53125 0.38541,-0.77083 0.54686,-1.70311 1.15625,-2.3125 0.13626,-0.13626 0.4325,-0.051 0.6875,0.0312 0.255,0.0822 0.46875,0.16145 0.46875,-0.0312 0,-0.24184 -0.56605,-0.83816 -1,-1.5 -0.21698,-0.33092 -0.41468,-0.68951 -0.46875,-1.03125 -0.0541,-0.34174 0.0227,-0.64772 0.3125,-0.9375 0.13626,-0.13626 0.39155,-0.0459 0.625,0.0312 0.23345,0.0772 0.44507,0.14111 0.53125,-0.0312 0.17236,-0.34472 0.10481,-0.75572 0.0312,-1.15625 -0.0736,-0.40053 -0.15313,-0.79062 -0.0312,-1.15625 0.23476,-0.70427 0.82432,-1.40379 1.34375,-2.15625 0.25972,-0.37623 0.47614,-0.77856 0.65625,-1.1875 0.18011,-0.40894 0.3125,-0.82582 0.3125,-1.28125 0,-0.1927 -0.21375,-0.14474 -0.46875,-0.0625 -0.255,0.0822 -0.55124,0.19876 -0.6875,0.0625 -0.326,-0.326 -0.42227,-0.65032 -0.375,-0.96875 0.0473,-0.31843 0.24272,-0.63972 0.46875,-0.9375 0.45206,-0.59556 1.0625,-1.128 1.0625,-1.5625 0,-1.20159 -0.033,-1.51314 -0.1875,-1.65625 -0.15446,-0.14311 -0.43033,-0.1178 -0.96875,-0.65625 -0.2044,-0.2044 -0.30543,-0.74073 -0.34375,-1.4375 -0.0383,-0.69677 -0.0199,-1.55715 0.0312,-2.4375 0.1022,-1.76069 0.3125,-3.57659 0.3125,-4.21875 0,-0.42104 0.16249,-1.98965 0.25,-3.53125 0.0875,-1.5416 0.10003,-3.05622 -0.25,-3.40625 -0.13626,-0.13626 -0.39155,-0.0459 -0.625,0.0312 -0.23345,0.0772 -0.44507,0.14111 -0.53125,-0.0312 -0.30415,-0.60829 -0.80761,-2.30892 -1.125,-4.15625 -0.1587,-0.92366 -0.25951,-1.8917 -0.28125,-2.78125 -0.0217,-0.88955 0.0413,-1.68631 0.25,-2.3125 0.57995,-1.73986 1.3663,-3.31509 2.1875,-4.8125 0.8212,-1.49741 1.67726,-2.91702 2.4375,-4.4375 0.26454,-0.52909 0.0705,-1.51159 -0.0937,-2.4375 -0.0821,-0.46295 -0.15169,-0.89355 -0.15625,-1.28125 -0.005,-0.3877 0.0539,-0.71012 0.25,-0.90625 0.27253,-0.27253 0.88372,0.27253 1.15625,0 0.27253,-0.27253 0.13627,-0.71439 0,-1.15625 -0.13627,-0.44186 -0.27253,-0.88372 0,-1.15625 0.15854,-0.15854 0.74276,-0.43622 1.28125,-0.8125 0.26924,-0.18814 0.52673,-0.4034 0.71875,-0.65625 0.19202,-0.25285 0.3125,-0.51934 0.3125,-0.84375 0,-0.1927 -0.23248,-0.12252 -0.5,-0.0312 -0.26752,0.0913 -0.57007,0.20362 -0.65625,0.0312 -0.30833,-0.61667 -0.48776,-1.31341 -0.59375,-2.03125 -0.10599,-0.71784 -0.13229,-1.4599 -0.0937,-2.25 0.0771,-1.5802 0.37917,-3.27292 0.6875,-4.96875 0.30833,-1.69583 0.61042,-3.38855 0.6875,-4.96875 0.0385,-0.7901 0.0122,-1.56341 -0.0937,-2.28125 -0.10599,-0.71784 -0.28542,-1.38333 -0.59375,-2 l -2.3125,-4.625 c -0.14487,-0.28974 -0.3065,-7.51627 -0.34375,-14.8125 -0.0372,-7.29623 0.0499,-14.66224 0.34375,-15.25 0.12187,-0.24375 0.39766,-0.40251 0.65625,-0.5625 0.25859,-0.15999 0.5,-0.32122 0.5,-0.59375 0,-0.19271 -0.21376,-0.14474 -0.46875,-0.0625 -0.25499,0.0822 -0.55123,0.19876 -0.6875,0.0625 -0.43359,-0.43359 -0.5542,-1.20362 -0.5,-2.125 0.0542,-0.92138 0.2832,-2.00977 0.5,-3.09375 0.2168,-1.08398 0.4458,-2.17237 0.5,-3.09375 0.0542,-0.92138 -0.0664,-1.66016 -0.5,-2.09375 -0.27253,-0.27253 -0.88372,0.27253 -1.15625,0 -0.43257,-0.43257 -0.57491,-1.33855 -0.6875,-2.25 -0.11259,-0.91145 -0.19545,-1.8284 -0.46875,-2.375 -0.0862,-0.17237 -0.34778,-0.0862 -0.59375,0 -0.24597,0.0862 -0.47632,0.17237 -0.5625,0 -0.24626,-0.49252 -0.32095,-1.42158 -0.4375,-2.34375 -0.11655,-0.92217 -0.27496,-1.83747 -0.71875,-2.28125 -0.32148,-0.32148 -1.00083,-0.78848 -1.6875,-1.375 -0.68667,-0.58652 -1.38065,-1.29256 -1.78125,-2.09375 -0.36687,-0.73375 -0.37297,-2.07931 -0.28125,-3.4375 0.0917,-1.35819 0.28125,-2.72904 0.28125,-3.5 0,-0.76615 -0.0965,-1.37916 -0.25,-1.875 -0.15353,-0.49584 -0.3553,-0.87073 -0.59375,-1.25 -0.47689,-0.75855 -1.06383,-1.44151 -1.46875,-2.65625 -0.15837,-0.4751 -0.1967,-1.05706 -0.15625,-1.65625 0.0404,-0.59919 0.15429,-1.23882 0.25,-1.875 0.0957,-0.63618 0.18009,-1.25766 0.1875,-1.84375 0.007,-0.58609 -0.0568,-1.1136 -0.28125,-1.5625 -0.19358,-0.38716 -0.47526,-0.70361 -0.78125,-0.9375 -0.30599,-0.23389 -0.62795,-0.38338 -0.96875,-0.53125 -0.6816,-0.29575 -1.36356,-0.48856 -1.71875,-0.84375 -0.27253,-0.27253 -0.17372,-0.70119 -0.0625,-1.125 0.11122,-0.42381 0.23487,-0.84277 0.0625,-1.1875 -0.1826,-0.3652 -2.23672,-3.39297 -2.3125,-3.46875 -0.59808,-0.59808 -0.89028,-0.68665 -1.03125,-0.53125 -0.14097,0.1554 -0.13583,0.53801 -0.125,0.84375 0.0108,0.30574 0.0177,0.55331 -0.125,0.40625 -0.14268,-0.14706 -0.42975,-0.67199 -1.03125,-1.875 -0.48068,-0.96137 -0.9759,-2.32264 -1.53125,-3.625 -0.55535,-1.30236 -1.17084,-2.54584 -1.9375,-3.3125 -0.75801,-0.75801 -2.88947,-1.73322 -3.46875,-2.3125 -0.28906,-0.28906 -0.14453,-1.02735 0,-1.75 0.14453,-0.72265 0.28906,-1.42969 0,-1.71875 -0.13626,-0.13626 -0.39155,-0.0459 -0.625,0.0312 -0.23345,0.0772 -0.44507,0.14112 -0.53125,-0.0312 -0.25855,-0.51709 -0.0418,-1.17679 0.125,-1.8125 0.0834,-0.31786 0.15418,-0.65478 0.15625,-0.9375 0.002,-0.28272 -0.0768,-0.51435 -0.28125,-0.71875 -0.27253,-0.27253 -0.88372,0.27253 -1.15625,0 -0.19764,-0.19764 -0.33626,-0.64864 -0.40625,-1.28125 -0.07,-0.63261 -0.084,-1.45661 -0.0625,-2.40625 0.0431,-1.89928 0.24492,-4.32151 0.4375,-6.78125 0.19258,-2.45974 0.3843,-4.95457 0.4375,-7.03125 0.0532,-2.07668 -0.0312,-3.71867 -0.40625,-4.46875 -0.45862,-0.91725 -2.25025,-2.18799 -2.3125,-2.3125 -0.17237,-0.34472 -0.0862,-0.75049 0,-1.15625 0.0862,-0.40576 0.17237,-0.81153 0,-1.15625 -0.0862,-0.17236 -0.34778,-0.0862 -0.59375,0 -0.24597,0.0862 -0.47631,0.17237 -0.5625,0 -0.17236,-0.34472 -0.0862,-0.75049 0,-1.15625 0.0862,-0.40576 0.17236,-0.81152 0,-1.15625 -0.0862,-0.17237 -0.2978,-0.10841 -0.53125,-0.0312 -0.23345,0.0772 -0.48874,0.16752 -0.625,0.0312 -0.93906,-0.93906 -1.78194,-2.01123 -2.5,-3.15625 -0.39838,-0.63526 -0.67184,-1.34672 -1,-2.03125 z"
       id="path3882"
       inkscape:connector-curvature="0" />
    <path
       style="fill:url(#radialGradient3884);fill-opacity:1;stroke:none"
       d="m 214.5715,735.25166 c 0.32816,0.68453 0.60162,1.39599 1,2.03125 0.71806,1.14502 1.56094,2.21719 2.5,3.15625 0.13626,0.13627 0.39155,0.0459 0.625,-0.0312 0.23345,-0.0772 0.44507,-0.14112 0.53125,0.0312 0.17236,0.34473 0.0862,0.75049 0,1.15625 -0.0862,0.40576 -0.17236,0.81153 0,1.15625 0.0862,0.17237 0.31653,0.0862 0.5625,0 0.24597,-0.0862 0.50757,-0.17236 0.59375,0 0.17237,0.34472 0.0862,0.75049 0,1.15625 -0.0862,0.40576 -0.17237,0.81153 0,1.15625 0.0623,0.12451 1.85388,1.39525 2.3125,2.3125 0.37504,0.75008 0.45945,2.39207 0.40625,4.46875 -0.0532,2.07668 -0.24492,4.57151 -0.4375,7.03125 -0.19258,2.45974 -0.39441,4.88197 -0.4375,6.78125 -0.0215,0.94964 -0.007,1.77364 0.0625,2.40625 0.07,0.63261 0.20861,1.08361 0.40625,1.28125 0.27253,0.27253 0.88372,-0.27253 1.15625,0 0.2044,0.2044 0.28332,0.43603 0.28125,0.71875 -0.002,0.28272 -0.0728,0.61964 -0.15625,0.9375 -0.16683,0.63571 -0.38355,1.29541 -0.125,1.8125 0.0862,0.17237 0.2978,0.10841 0.53125,0.0312 0.23345,-0.0772 0.48874,-0.16751 0.625,-0.0312 0.28906,0.28906 0.14453,0.9961 0,1.71875 -0.14453,0.72265 -0.28906,1.46094 0,1.75 0.57928,0.57928 2.71074,1.55449 3.46875,2.3125 0.76666,0.76666 1.38215,2.01014 1.9375,3.3125 0.55535,1.30236 1.05057,2.66363 1.53125,3.625 0.6015,1.20301 0.88857,1.72794 1.03125,1.875 0.14268,0.14706 0.13583,-0.10051 0.125,-0.40625 -0.0108,-0.30574 -0.016,-0.68835 0.125,-0.84375 0.14097,-0.1554 0.43317,-0.0668 1.03125,0.53125 0.0758,0.0758 2.1299,3.10355 2.3125,3.46875 0.17237,0.34473 0.0487,0.76369 -0.0625,1.1875 -0.11122,0.42381 -0.21003,0.85247 0.0625,1.125 0.35519,0.35519 1.03715,0.548 1.71875,0.84375 0.3408,0.14787 0.66276,0.29736 0.96875,0.53125 0.30599,0.23389 0.58767,0.55034 0.78125,0.9375 0.22445,0.4489 0.28866,0.97641 0.28125,1.5625 -0.007,0.58609 -0.0918,1.20757 -0.1875,1.84375 -0.0957,0.63618 -0.20955,1.27581 -0.25,1.875 -0.0404,0.59919 -0.002,1.18115 0.15625,1.65625 0.40492,1.21474 0.99186,1.8977 1.46875,2.65625 0.23845,0.37927 0.44022,0.75416 0.59375,1.25 0.15353,0.49584 0.25,1.10885 0.25,1.875 0,0.77096 -0.18953,2.14181 -0.28125,3.5 -0.0917,1.35819 -0.0856,2.70375 0.28125,3.4375 0.4006,0.80119 1.09458,1.50723 1.78125,2.09375 0.68667,0.58652 1.36602,1.05352 1.6875,1.375 0.44379,0.44378 0.6022,1.35908 0.71875,2.28125 0.11655,0.92217 0.19124,1.85123 0.4375,2.34375 0.0862,0.17237 0.31653,0.0862 0.5625,0 0.24597,-0.0862 0.50757,-0.17237 0.59375,0 0.2733,0.5466 0.35616,1.46355 0.46875,2.375 0.11259,0.91145 0.25493,1.81743 0.6875,2.25 0.27253,0.27253 0.88372,-0.27253 1.15625,0 0.43359,0.43359 0.5542,1.17237 0.5,2.09375 -0.0542,0.92138 -0.2832,2.00977 -0.5,3.09375 -0.2168,1.08398 -0.4458,2.17237 -0.5,3.09375 -0.0542,0.92138 0.0664,1.69141 0.5,2.125 0.13627,0.13626 0.43251,0.0197 0.6875,-0.0625 0.25499,-0.0822 0.46875,-0.13021 0.46875,0.0625 0,0.27253 -0.24141,0.43376 -0.5,0.59375 -0.25859,0.15999 -0.53438,0.31875 -0.65625,0.5625 -0.29388,0.58776 -0.381,7.95377 -0.34375,15.25 0.0372,7.29623 0.19888,14.52276 0.34375,14.8125 l 2.3125,4.625 c 0.30833,0.61667 0.48776,1.28216 0.59375,2 0.10599,0.71784 0.13229,1.49115 0.0937,2.28125 -0.0771,1.5802 -0.37917,3.27292 -0.6875,4.96875 -0.30833,1.69583 -0.61042,3.38855 -0.6875,4.96875 -0.0385,0.7901 -0.0122,1.53216 0.0937,2.25 0.10599,0.71784 0.28542,1.41458 0.59375,2.03125 0.0862,0.17237 0.38873,0.06 0.65625,-0.0312 0.26752,-0.0913 0.5,-0.16145 0.5,0.0312 0,0.32441 -0.12048,0.5909 -0.3125,0.84375 -0.19202,0.25285 -0.44951,0.46811 -0.71875,0.65625 -0.53849,0.37628 -1.12271,0.65396 -1.28125,0.8125 -0.27253,0.27253 -0.13627,0.71439 0,1.15625 0.13627,0.44186 0.27253,0.88372 0,1.15625 -0.27253,0.27253 -0.88372,-0.27253 -1.15625,0 -0.19613,0.19613 -0.25456,0.51855 -0.25,0.90625 0.005,0.3877 0.0742,0.8183 0.15625,1.28125 0.1642,0.92591 0.35829,1.90841 0.0937,2.4375 -0.76024,1.52048 -1.6163,2.94009 -2.4375,4.4375 -0.8212,1.49741 -1.60755,3.07264 -2.1875,4.8125 -0.20873,0.62619 -0.27174,1.42295 -0.25,2.3125 0.0217,0.88955 0.12255,1.85759 0.28125,2.78125 0.31739,1.84733 0.82085,3.54796 1.125,4.15625 0.0862,0.17236 0.2978,0.10841 0.53125,0.0312 0.23345,-0.0772 0.48874,-0.16751 0.625,-0.0312 0.35003,0.35003 0.33751,1.86465 0.25,3.40625 -0.0875,1.5416 -0.25,3.11021 -0.25,3.53125 0,0.64216 -0.2103,2.45806 -0.3125,4.21875 -0.0511,0.88035 -0.0696,1.74073 -0.0312,2.4375 0.0383,0.69677 0.13935,1.2331 0.34375,1.4375 0.53842,0.53845 0.81429,0.51314 0.96875,0.65625 0.15446,0.14311 0.1875,0.45466 0.1875,1.65625 0,0.4345 -0.61044,0.96694 -1.0625,1.5625 -0.22603,0.29778 -0.42148,0.61907 -0.46875,0.9375 -0.0473,0.31843 0.049,0.64275 0.375,0.96875 0.13626,0.13626 0.4325,0.0197 0.6875,-0.0625 0.255,-0.0822 0.46875,-0.1302 0.46875,0.0625 0,0.45543 -0.13239,0.87231 -0.3125,1.28125 -0.18011,0.40894 -0.39653,0.81127 -0.65625,1.1875 -0.51943,0.75246 -1.10899,1.45198 -1.34375,2.15625 -0.12188,0.36563 -0.0423,0.75572 0.0312,1.15625 0.0736,0.40053 0.14111,0.81153 -0.0312,1.15625 -0.0862,0.17236 -0.2978,0.10841 -0.53125,0.0312 -0.23345,-0.0772 -0.48874,-0.16751 -0.625,-0.0312 -0.28977,0.28978 -0.36657,0.59576 -0.3125,0.9375 0.0541,0.34174 0.25177,0.70033 0.46875,1.03125 0.43395,0.66184 1,1.25816 1,1.5 0,0.1927 -0.21375,0.11349 -0.46875,0.0312 -0.255,-0.0822 -0.55124,-0.16751 -0.6875,-0.0312 -0.60939,0.60939 -0.77084,1.54167 -1.15625,2.3125 -0.19386,0.38772 -0.26275,1.96525 -0.25,3.53125 0.0127,1.566 0.10713,3.12052 0.25,3.40625 0.0862,0.17236 0.38873,0.06 0.65625,-0.0312 0.26752,-0.0913 0.5,-0.16146 0.5,0.0312 0,0.27253 -0.23248,0.40621 -0.5,0.5625 -0.26752,0.15629 -0.57007,0.3352 -0.65625,0.59375 -0.24376,0.73127 -0.41226,1.54269 -0.4375,2.34375 -0.0252,0.80106 0.0928,1.59179 0.4375,2.28125 0.0862,0.17236 0.2978,0.10841 0.53125,0.0312 0.23345,-0.0772 0.48874,-0.16751 0.625,-0.0312 0.30132,0.30132 0.3644,0.74147 0.3125,1.28125 -0.0519,0.53978 -0.21764,1.18089 -0.4375,1.78125 -0.43972,1.20071 -1.03125,2.34301 -1.03125,2.71875 0,0.1927 0.27344,0.0963 0.5625,0 0.28906,-0.0963 0.59375,-0.19271 0.59375,0 0,0.43091 -0.21376,0.78805 -0.46875,1.15625 -0.25499,0.3682 -0.55124,0.74746 -0.6875,1.15625 -0.12188,0.36563 0.0264,0.80017 0.125,1.21875 0.0986,0.41858 0.14753,0.82122 -0.125,1.09375 -0.24088,0.24088 -0.4304,0.34639 -0.59375,0.375 -0.16335,0.0286 -0.30688,-0.0226 -0.40625,-0.125 -0.19873,-0.20475 -0.28841,-0.60287 -0.3125,-0.84375 -0.0482,-0.48177 0.15625,-0.36978 0.15625,2.90625 -0.47818,0.71727 -0.95718,1.13786 -1.4375,1.46875 -0.48032,0.33089 -0.95545,0.55032 -1.4375,0.875 -0.48205,0.32468 -0.98539,0.73887 -1.46875,1.4375 -0.48336,0.69863 -0.95325,1.7035 -1.4375,3.15625 -0.22428,0.67285 -0.33062,1.52596 -0.34375,2.46875 -0.0131,0.94279 0.0505,1.96335 0.1875,2.96875 0.27404,2.0108 0.80385,3.95145 1.3125,4.96875 0.24375,0.48752 0.70001,0.82188 1.15625,1.15625 0.45624,0.33437 0.91249,0.66873 1.15625,1.15625 0.17236,0.34473 0.0862,0.75049 0,1.15625 -0.0862,0.40576 -0.17237,0.81154 0,1.15624 0.0862,0.1724 0.2978,0.1084 0.53125,0.031 0.23345,-0.077 0.48874,-0.1675 0.625,-0.031 0.43091,0.4309 0.48889,1.067 0.5625,1.7188 0.0736,0.6517 0.16285,1.3191 0.59375,1.75 0.74688,0.7468 1.63856,1.3275 2.53125,1.9063 0.32599,-0.448 0.64235,-0.7543 0.96875,-1.2188 2.25831,-6.02218 15.805,-12.06139 26.34375,-29.37504 10.53874,-17.31365 10.53205,-17.2892 18.8125,-40.625 8.28044,-23.33579 7.5301,-18.82161 24.84375,-24.84375 17.31366,-6.02214 19.59098,-8.29474 20.34375,-30.125 0.75276,-21.83026 -12.06054,-32.35839 -21.09375,-36.875 -9.03321,-4.5166 -9.02848,-12.79393 -9.78125,-26.34375 -0.75277,-13.54982 -6.77929,-14.30143 -15.8125,-17.3125 -9.03321,-3.01107 -6.77849,-7.54947 -7.53125,-19.59375 -0.75277,-12.04428 -6.74804,-6.76742 -15.78125,-10.53125 -9.03321,-3.76384 -7.52652,-16.56527 -17.3125,-15.8125 -9.78597,0.75277 -15.07715,-6.01822 -19.59375,-18.0625 -3.076,-8.20266 -9.6206,-4.11067 -15.875,0 z"
       id="path3007"
       inkscape:connector-curvature="0" />
    <path
       style="opacity:0.86666667;fill:#d7f4d7;stroke:none"
       d="m 170.23202,830.86015 c -1.50554,-3.01107 -6.02214,-25.59409 -21.07749,-38.39114 -15.05535,-12.79705 -17.31366,-20.32472 -17.31366,-25.5941 5.26938,8.28045 12.04428,16.56089 18.81919,22.58303 6.77491,6.02214 33.87454,47.42435 35.38007,55.7048 -10.53874,-9.03321 -15.80811,-14.30259 -15.80811,-14.30259 z"
       id="path3013"
       inkscape:connector-curvature="0" />
    <path
       style="opacity:0.86666667;fill:#d7f4d7;stroke:none"
       d="m 228.94788,920.43949 c 0,0 -6.02214,-33.12177 -7.52767,-56.45757 -1.50554,-23.33579 4.5166,-40.64944 -2.2583,-58.71586 -6.77491,-18.06642 -9.78598,-17.31366 -13.54982,-33.12177 -3.76384,-15.80812 -6.02214,-27.8524 -6.02214,-27.8524 0,0 6.02214,23.33579 9.78598,32.369 3.76384,9.03321 16.56088,22.58303 16.56088,36.88561 0,14.30258 3.01107,55.7048 1.50554,68.50184 -1.50554,12.79705 13.54981,63.98524 13.54981,63.98524 z"
       id="path3015"
       inkscape:connector-curvature="0" />
    <path
       style="opacity:0.86666667;fill:#d7f4d7;stroke:none"
       d="m 242.4977,948.29189 c 0,0 -22.58303,-25.5941 -52.69373,-40.64945 -30.1107,-15.05535 -48.17712,-30.1107 -60.2214,-31.61624 -12.04428,-1.50553 -3.76384,-3.76383 -28.60517,-5.26937 -24.841319,-1.50553 -33.121769,-1.50553 -41.402209,-10.53874 -8.28044,-9.03321 -9.78598,-18.81919 -9.78598,-18.81919 0,0 9.78598,25.59409 36.13284,25.59409 26.346869,0 41.402219,0.75277 65.490779,13.54982 24.08856,12.79705 55.7048,29.35793 67.74908,38.39114 12.04428,9.03321 15.80811,10.53875 15.80811,10.53875 z"
       id="path3017"
       inkscape:connector-curvature="0" />
    <path
       style="opacity:0.86666667;fill:#d7f4d7;stroke:none"
       d="m 112.26892,869.2513 c 0,0 -6.02214,-6.02214 -15.808119,-18.81919 -9.78598,-12.79705 -11.29151,-21.83026 -21.83026,-24.84133 -10.53874,-3.01107 -16.56089,2.2583 -16.56089,2.2583 0,0 7.52768,-17.31365 27.8524,4.51661 20.324729,21.83026 39.896679,39.14391 39.896679,39.14391 z"
       id="path3019"
       inkscape:connector-curvature="0" />
    <path
       style="opacity:0.86666667;fill:#d7f4d7;stroke:none"
       d="m 249.27261,978.40259 c 0,0 -7.52768,-23.3358 -57.21034,-35.38008 -49.68265,-12.04428 -79.79335,-18.06642 -100.118079,-30.1107 -20.32472,-12.04428 -35.38007,-20.32472 -44.41328,-33.12177 -9.03321,-12.79705 -15.05535,-16.56088 -15.05535,-16.56088 0,0 12.79705,23.33579 33.12177,38.39114 20.32472,15.05535 66.996309,38.39114 92.590409,40.64945 25.59409,2.2583 62.4797,7.52767 89.57933,42.15498 4.51661,-1.50554 1.50554,-6.02214 1.50554,-6.02214 z"
       id="path3021"
       inkscape:connector-curvature="0" />
    <path
       style="opacity:0.86666667;fill:#d7f4d7;stroke:none"
       d="m 247.0143,967.86384 c 0,0 0.75277,-50.43542 0,-88.0738 -0.75276,-37.63837 1.11946,-39.99668 -13.18312,-73.11845 -14.30258,-33.12177 -21.44418,-48.07712 -16.92758,-74.42398 3.76384,26.34686 10.70543,57.69642 19.73864,68.98793 9.03321,11.29151 15.80811,43.00775 14.30258,85.9155 -1.50554,42.90775 -2.22497,83.10445 4.34993,101.79029 -9.03321,-7.52767 -8.28045,-21.07749 -8.28045,-21.07749 z"
       id="path3023"
       inkscape:connector-curvature="0"
       sodipodi:nodetypes="csscsscc" />
    <path
       style="opacity:0.86666667;fill:#d7f4d7;stroke:none"
       d="m 238.73386,793.22178 c 0,0 1.50554,-14.30259 5.26937,-20.32473 3.76384,-6.02214 -2.2583,-20.32472 -9.03321,-25.59409 13.54982,13.54981 15.05535,18.81919 12.04428,30.1107 -3.01107,11.29151 -4.5166,24.08856 -4.5166,24.08856 z"
       id="path3025"
       inkscape:connector-curvature="0" />
    <path
       style="opacity:0.86666667;fill:#d7f4d7;stroke:none"
       d="m 249.27261,941.51698 c 0,0 19.57195,-21.07749 24.84133,-63.23247 5.26937,-42.15498 6.7749,-51.94096 -0.75277,-66.24355 -7.52768,-14.30258 -12.04428,-21.07749 -11.29152,-34.6273 6.02214,17.31365 24.84133,39.89668 22.58303,59.46863 -2.2583,19.57196 0,57.21034 -11.29151,78.28783 -11.29152,21.07749 -23.3358,54.19926 -23.3358,54.19926 z"
       id="path3027"
       inkscape:connector-curvature="0" />
    <path
       style="opacity:0.8125;fill:#d7f4d7;stroke:none"
       d="m 244.756,988.94133 c 0,0 -80.54612,-1.50553 -105.38745,-17.31365 -24.84133,-15.80812 -32.36901,-13.54981 -61.726939,-13.54981 -29.35793,0 -45.16605,-19.57196 -45.16605,-19.57196 0,0 18.81919,17.31365 40.64945,16.56088 21.83025,-0.75276 31.616229,-2.2583 73.018449,11.29152 41.40221,13.54981 88.0738,19.57195 98.61254,14.30258 2.2583,6.02214 0,8.28044 0,8.28044 z"
       id="path3821"
       inkscape:connector-curvature="0" />
    <path
       style="opacity:0.8125;fill:#d7f4d7;stroke:none"
       d="m 158.18774,973.13322 c 0,0 -27.8524,-24.08857 -58.715869,-30.11071 -30.86347,-6.02214 -51.18819,-21.83025 -59.46864,-30.86346 -8.28044,-9.03321 -12.04428,-19.57196 -12.04428,-19.57196 0,0 19.57196,36.88561 57.21034,43.66052 37.638369,6.7749 54.952029,17.31365 67.749069,24.08856 12.79705,6.77491 21.07749,17.31365 21.07749,17.31365 z"
       id="path3823"
       inkscape:connector-curvature="0" />
    <path
       style="fill:#d7f4d7;stroke:none"
       d="m 257.55305,1007.7606 c 4.5166,-5.2694 4.5166,-14.30266 -0.75277,-27.09971 -5.26937,-12.79705 -9.03321,-35.38007 -37.63837,-79.79336 -28.60517,-44.41328 -20.32473,-54.95203 -51.1882,-72.26568 -30.86346,-17.31365 -27.85239,-6.77491 -46.67158,-19.57196 -18.81919,-12.79704 -31.616239,-21.07749 -41.402219,-23.33579 21.077489,13.54982 42.154979,33.12177 60.221409,38.39115 18.06642,5.26937 44.41328,18.06642 50.43542,34.6273 6.02214,16.56089 18.81919,39.14391 31.61624,56.45757 12.79704,17.31365 20.32472,33.87453 20.32472,45.16605 0,11.29151 4.5166,46.67163 4.5166,46.67163 0,0 3.01107,6.0221 10.53875,0.7528 z"
       id="path3011"
       inkscape:connector-curvature="0" />
    <path
       style="opacity:0.34166667;fill:#aaffaa;fill-opacity:1;stroke:none"
       d="m 258.66525,992.75166 c -0.54468,-0.28861 -1.89541,-0.97601 -4.0625,-2 -2.555,-1.20729 -5.43523,-2.4683 -6.6875,-2.71875 -1.12595,-0.22519 -6.27857,-0.76259 -11.4375,-1.125 -2.57946,-0.1812 -5.16117,-0.32804 -7.25,-0.375 -2.08883,-0.047 -3.68231,0.0191 -4.28125,0.21875 -0.66061,0.2202 -1.30418,0.68387 -1.9375,1.1875 -0.63332,0.50363 -1.2423,1.02739 -1.875,1.34375 -1.2649,0.63245 -2.48953,1.111 -3.71875,1.46875 -1.22922,0.35775 -2.47602,0.62048 -3.71875,0.78125 -2.48547,0.32154 -5.04034,0.3125 -7.875,0.3125 -0.70199,0 -2.19382,0.14779 -3.71875,0.21875 -1.52493,0.071 -3.08603,0.0651 -3.9375,-0.21875 -1.6565,-0.55217 -3.27435,-1.26928 -4.84375,-2.125 -1.5694,-0.85572 -3.07799,-1.83602 -4.5,-2.9375 -1.42201,-1.10148 -2.75441,-2.33557 -3.96875,-3.625 -1.21434,-1.28943 -2.30362,-2.64292 -3.25,-4.0625 -0.72848,-1.09271 -1.35844,-2.57779 -2.125,-4 -0.38328,-0.71111 -0.79418,-1.40279 -1.28125,-2.03125 -0.48707,-0.62846 -1.06505,-1.1892 -1.71875,-1.625 -0.96491,-0.64328 -2.0535,-1.66676 -3.15625,-2.65625 -1.10275,-0.98949 -2.21702,-1.93664 -3.21875,-2.4375 -0.38653,-0.19326 -1.2068,-0.39 -2,-0.59375 -0.7932,-0.20375 -1.54525,-0.42025 -1.8125,-0.6875 -0.30065,-0.30065 0.30065,-0.98061 0,-1.28125 -0.57023,-0.57023 -1.12221,-0.85889 -1.65625,-1 -0.53404,-0.14111 -1.04448,-0.14518 -1.5625,-0.0937 -0.51802,0.0514 -1.04032,0.14887 -1.5625,0.15625 -0.52218,0.007 -1.04724,-0.0705 -1.59375,-0.34375 -1.58606,-0.79303 -3.48303,-1.74142 -5.3125,-2.8125 -1.82947,-1.07108 -3.60595,-2.2622 -4.90625,-3.5625 -1.65742,-1.65742 -2.39148,-2.57953 -2.6875,-3.09375 -0.29602,-0.51422 -0.13979,-0.62021 0.0312,-0.6875 0.17104,-0.0673 0.34997,-0.0896 0.0937,-0.40625 -0.25622,-0.31664 -0.95343,-0.92524 -2.53125,-2.1875 -1.19707,-0.95765 -2.75975,-1.47851 -3.84375,-2.5625 -0.67226,-0.67227 -0.94837,-1.59185 -1.25,-2.53125 -0.30163,-0.9394 -0.60899,-1.89024 -1.28125,-2.5625 -0.67227,-0.67226 -1.89024,-0.60899 -2.5625,-1.28125 -2.12261,-2.12261 -3.07161,-3.11142 -3.34375,-3.5 -0.27214,-0.38858 0.15119,-0.15935 0.71875,0.1875 0.56756,0.34685 1.29103,0.79132 1.6875,0.875 0.19824,0.0418 0.31531,-0.008 0.28125,-0.21875 -0.0341,-0.21119 -0.2323,-0.56721 -0.625,-1.15625 -0.49078,-0.73617 -1.09375,-1.34341 -1.75,-1.875 -0.65625,-0.53159 -1.35115,-0.98781 -2.0625,-1.4375 -0.71135,-0.44969 -1.43768,-0.88454 -2.09375,-1.375 -0.65607,-0.49046 -1.25957,-1.03359 -1.75,-1.6875 -0.2551,-0.34015 -0.12274,-0.81696 0,-1.28125 0.12274,-0.46429 0.23585,-0.92748 0,-1.28125 -0.26368,-0.39553 -0.59584,-0.67533 -1,-0.90625 -0.40416,-0.23092 -0.87079,-0.40842 -1.34375,-0.5625 -0.94593,-0.30816 -1.95895,-0.53513 -2.75,-1.0625 -0.95664,-0.63777 -1.27264,-0.97688 -1.3125,-1.15625 -0.0399,-0.17937 0.21556,-0.20153 0.375,-0.28125 0.15944,-0.0797 0.23374,-0.22369 -0.125,-0.5625 -0.35874,-0.33881 -1.15559,-0.8871 -2.75,-1.84375 -1.15292,-0.69175 -2.64117,-0.67996 -3.84375,-1.28125 -0.9379,-0.46894 -2.03386,-1.61984 -3.15625,-2.71875 -0.5612,-0.54945 -1.14706,-1.07268 -1.6875,-1.5 -0.54044,-0.42732 -1.05616,-0.75623 -1.53125,-0.875 -0.61872,-0.15468 -1.25554,-0.0578 -1.90625,0.0312 -0.65071,0.0891 -1.30121,0.17043 -1.90625,-0.0312 -0.50419,-0.16807 -0.96327,-0.46253 -1.375,-0.8125 -0.41173,-0.34997 -0.77344,-0.75217 -1.15625,-1.15625 -0.38281,-0.40408 -0.77006,-0.79461 -1.1875,-1.125 -0.417439,-0.33039 -0.890649,-0.58985 -1.406249,-0.71875 -0.61873,-0.15468 -1.25232,-0.0666 -1.90625,0.0312 -0.65393,0.0979 -1.3141,0.20561 -1.90625,-0.0312 -1.10359,-0.44144 -3.38997,-2.06407 -5.6875,-3.71875 -2.29753,-1.65468 -4.5952,-3.34448 -5.78125,-3.9375 -0.68572,-0.34286 -1.20114,-0.44911 -1.59375,-0.40625 -0.39261,0.0429 -0.67384,0.23482 -0.96875,0.40625 -0.29491,0.17143 -0.57614,0.33214 -0.96875,0.375 -0.39261,0.0429 -0.90803,-0.0321 -1.59375,-0.375 -0.19015,-0.0951 -0.11637,-0.33622 -0.0312,-0.59375 0.0851,-0.25753 0.18157,-0.53717 0.0312,-0.6875 -0.6044,-0.60439 -1.09093,-0.95201 -1.5625,-1.125 -0.47157,-0.17299 -0.92062,-0.16459 -1.375,-0.125 -0.45438,0.0396 -0.91593,0.12291 -1.46875,0.15625 -0.55282,0.0333 -1.20185,0.004 -1.96875,-0.1875 -0.95056,-0.23764 -1.98524,-1.04764 -3.0625,-1.875 -1.07726,-0.82736 -2.19447,-1.65799 -3.3125,-1.9375 -0.89656,-0.22413 -2.47708,-0.55326 -4,-0.96875 -0.76146,-0.20774 -1.51651,-0.42102 -2.15625,-0.6875 -0.63974,-0.26648 -1.16752,-0.57377 -1.5,-0.90625 -0.97878,-0.97878 -1.41727,-1.5289 -1.5625,-1.875 -0.14523,-0.3461 0.007,-0.48453 0.21875,-0.625 0.21155,-0.14047 0.50219,-0.29435 0.59375,-0.65625 0.0916,-0.3619 -0.0261,-0.92712 -0.53125,-1.9375 -0.2689,-0.53781 -0.74669,-0.91239 -1.25,-1.28125 -0.50331,-0.36886 -1.01234,-0.74344 -1.28125,-1.28125 -0.19015,-0.38029 -0.13582,-0.81043 -0.0625,-1.25 0.0733,-0.43957 0.16562,-0.90002 0.0625,-1.3125 -0.33437,-1.33749 -1.1632,-2.5711 -1.96875,-3.8125 -0.40278,-0.6207 -0.79319,-1.23993 -1.125,-1.875 -0.33181,-0.63507 -0.61499,-1.2937 -0.75,-1.96875 -0.23805,-1.19025 -0.26198,-2.4492 -0.1875,-3.75 0.0745,-1.3008 0.25144,-2.6389 0.40625,-3.96875 0.15481,-1.32985 0.30958,-2.62883 0.3125,-3.90625 0.003,-1.27742 -0.15008,-2.51274 -0.53125,-3.65625 -0.83745,-2.51236 -2.01679,-5.08392 -2.53125,-7.65625 -0.26061,-1.30305 -0.2998,-2.59061 -0.28125,-3.84375 0.0186,-1.25314 0.10222,-2.47342 0.0937,-3.65625 -0.008,-1.18283 -0.12708,-2.34537 -0.46875,-3.4375 -0.0383,-0.12244 -0.17412,-0.22259 -0.21875,-0.34375 -9.7343,9.93247 -11.7968,8.0338 -20.34375,15.15625 -9.03321,7.52768 -2.26107,14.28563 0.75,30.09375 3.01107,15.80811 -0.75277,7.52099 0,18.8125 0.75276,11.29152 9.79508,9.79474 6.03125,31.625 -3.76384,21.83026 6.02457,24.07795 24.84375,36.875 18.81919,12.79705 18.07323,14.33072 40.65625,26.37499 22.583029,12.0443 14.308579,7.5064 32.374999,14.2813 18.06643,6.7749 38.36555,11.307 57.9375,12.8125 19.57196,1.5055 38.3968,3.7587 57.96875,-24.0938 1.24118,-3.3098 5.96796,-6.81558 11.65625,-11.99999 z"
       id="path3848"
       inkscape:connector-curvature="0" />
    <path
       style="fill:#d7f4d7;stroke:none"
       d="m 245.82687,990.3245 c 0,0 -30.21697,24.667 -57.96725,20.3503 -27.75029,-4.3168 -23.43358,-14.18357 -51.80053,-23.43366 -28.36696,-9.2501 -44.400459,-11.71679 -61.667299,-12.95013 -17.26684,-1.23335 -28.36695,-9.2501 -32.68366,-12.95014 10.48344,9.86677 18.50018,16.0335 38.23372,17.88352 19.73353,1.85002 45.633799,4.93338 64.133989,14.80015 18.50018,9.86676 28.36695,22.20026 51.18385,21.58356 22.8169,-0.6166 53.65055,-19.73354 53.65055,-19.73354 z"
       id="path3860"
       inkscape:connector-curvature="0" />
    <path
       style="fill:#d7f4d7;stroke:none"
       d="m 197.66835,1014.4795 c 0,0 -9.80873,9.1454 -40.02571,0.512 -30.21697,-8.6335 -29.6003,-13.5669 -47.48382,-15.4169 -17.883509,-1.85002 -26.516929,-6.16673 -26.516929,-6.16673 0,0 18.894989,4.78205 29.378429,4.16538 10.48344,-0.61667 22.99212,9.54145 38.40895,13.24145 8.06902,1.9366 32.70341,7.9647 37.37259,3.4932 5.45328,0.388 -0.8326,1.0533 8.86649,0.1716 z"
       id="path3862"
       inkscape:connector-curvature="0"
       sodipodi:nodetypes="csscsscc" />
  </g>
</svg>
