<svg xmlns="http://www.w3.org/2000/svg" xmlns:xlink="http://www.w3.org/1999/xlink" viewBox="133.098 60.557 267.093 321.344" width="258.09" height="315.34">
  <defs>
    <path d="M394.92 275.12c7.6 41.36-42.34 56.22-73.91 47.17-21.05-6.04-35.93-31.71-44.62-77.01 73.95-7.69 113.46 2.26 118.53 29.84z" id="a"/>
    <path d="M334.86 371.39c-36.05 21.68-67.53-19.83-70.17-52.57-1.76-21.82 17.03-44.78 56.37-68.87 33.23 66.51 37.83 106.99 13.8 121.44z" id="b"/>
    <path d="M322.55 361.96c-26.38 15.87-49.43-14.51-51.36-38.48-1.29-15.97 12.46-32.78 41.26-50.41 24.32 48.68 27.69 78.31 10.1 88.89z" id="c"/>
    <path d="M366.23 283.97c5.56 30.28-30.99 41.16-54.1 34.53-15.41-4.42-26.29-23.21-32.66-56.37 54.13-5.63 83.05 1.65 86.76 21.84z" id="d"/>
    <path d="M154.07 177.28c-32.15 27.12-3.01 70.32 27.12 83.38 20.1 8.7 47.89-1.68 83.38-31.15-52.23-52.9-89.07-70.32-110.5-52.23z" id="e"/>
    <path d="M317.87 129.66c-4.35-18.21-.28-33.89 12.22-47.03 6.64-11.42 3.91-12.43-8.17-3.04s-16.91 27.27-14.49 53.65c11.31 15.83 14.79 14.64 10.44-3.58z" id="f"/>
    <path d="M139.31 289.78c14.07 39.64 64.75 27.58 87.59 3.97 15.22-15.74 15.29-45.41.2-89-67.91 30.26-97.17 58.61-87.79 85.03z" id="g"/>
    <path d="M150.75 291.2c10.3 29.01 47.4 20.19 64.11 2.9 11.15-11.52 11.2-33.23.15-65.14-49.7 22.15-71.12 42.9-64.26 62.24z" id="h"/>
    <path d="M170.6 202.34c-23.52 19.85-2.2 51.47 19.86 61.03 14.7 6.37 35.05-1.23 61.03-22.8-38.24-38.72-65.2-51.47-80.89-38.23z" id="i"/>
    <path d="M340.35 72.42c2.6 2.37 3.14 6.2 1.23 8.55-5.32 6.52-17.35 1.18-17.49 1.36.14-.18-6.62-11.99-1.31-18.51 1.92-2.36 5.58-2.35 8.18.02 2.59 2.37 3.33 5.96 1.41 8.32 1.92-2.36 5.39-2.11 7.98.26z" id="j"/>
    <path d="M273.9 318.5c-16.12 34.12-44.41 54.65-63.12 45.81-18.71-8.85-20.82-43.73-4.69-77.85 16.12-34.13 44.41-54.65 63.12-45.81 18.71 8.84 20.81 43.73 4.69 77.85z" id="k"/>
    <path d="M338.38 142.68c8.69-16.6 22.05-25.74 40.11-27.45 12.5-4.25 11.11-6.8-4.16-7.65-15.28-.86-30.67 9.46-46.16 30.94-1.87 19.36 1.53 20.75 10.21 4.16z" id="l"/>
    <path d="M221.96 168.84c-10.43 17.38-27.25 69.67 37.18 94.23 64.44 24.57 90.21 2.64 102.48-19.53 12.28-22.17 9.82-68.55 4.3-81.73-5.52-13.18-21.48-40.15-55.23-42.54-22.5-1.6-41.52 4.19-57.07 17.37-14.15 9.89-24.7 20.62-31.66 32.2z" id="m"/>
    <path d="M279.56 183.6c1.47-13.72-.74-20.83-6.62-21.32-5.88-.49-11.52 3.68-16.91 12.5" id="n"/>
    <path d="M313.1 194.55c9.29-10.21 16.07-13.28 20.34-9.2 4.27 4.07 4.9 11.05 1.88 20.94" id="o"/>
    <path d="M268.01 200.88c0 7.51-6.8 13.61-15.18 13.61-8.38 0-15.18-6.1-15.18-13.61s6.8-13.6 15.18-13.6c8.38 0 15.18 6.09 15.18 13.6z" id="p"/>
    <path d="M337.19 231.47c0 7.51-6.8 13.6-15.18 13.6-8.38 0-15.18-6.09-15.18-13.6s6.8-13.6 15.18-13.6c8.38 0 15.18 6.09 15.18 13.6z" id="q"/>
    <path d="M237.1 159.16c12.37-11.76.28-2.44-10.35 24.42-4.34 10.98-6.27 24.59-5.79 40.83-6.66-26.93-1.28-48.68 16.14-65.25z" id="r"/>
    <path d="M392.93 114.27c.4 3.49-1.7 6.74-4.69 7.26-8.29 1.43-13.86-10.5-14.09-10.46.23-.04 2.89-13.39 11.18-14.82 3-.52 5.75 1.89 6.15 5.38.4 3.49-1.4 6.69-4.39 7.2 2.99-.51 5.44 1.95 5.84 5.44z" id="s"/>
    <path d="M299.93 220.71c-5.5 10.1-10.6 15.73-15.31 16.9-7.06 1.75-12.94-2.33-14.71-8.74-1.18-4.27.59-10.29 5.3-18.06" id="t"/>
    <path d="M231.73 353.55c4 2 5.62 6.86 3.62 10.85-.73 1.45.72-1.45 0 0-2 4-6.86 5.62-10.85 3.62-6.94-3.47-20.5-10.25-27.43-13.71-3.99-2-5.61-6.86-3.61-10.85.72-1.45-.73 1.44 0 0 1.99-4 6.85-5.62 10.85-3.62 6.93 3.46 20.49 10.24 27.42 13.71z" id="u"/>
    <path d="M257.15 339.99c-1.6 3.28-15.43-.18-30.86-7.72s-26.66-16.33-25.05-19.61c1.6-3.29 15.43.18 30.86 7.72s26.66 16.33 25.05 19.61z" id="v"/>
    <path d="M271.53 317.59c-1.61 3.29-16.76-.82-33.83-9.17-17.06-8.34-29.62-17.78-28.01-21.06 1.6-3.28 16.76.83 33.82 9.17 17.07 8.35 29.62 17.78 28.02 21.06z" id="w"/>
    <path d="M279.85 292.43c-1.6 3.28-15.42-.2-30.83-7.76-15.42-7.57-26.64-16.38-25.05-19.66 1.6-3.28 15.42.2 30.84 7.77 15.42 7.56 26.64 16.37 25.04 19.65z" id="x"/>
  </defs>
  <use xlink:href="#a" fill="#8bf2f1"/>
  <use xlink:href="#b" fill="#8bf2f1"/>
  <use xlink:href="#c" fill="#9cfbf7"/>
  <use xlink:href="#d" fill="#9cfbf7"/>
  <use xlink:href="#e" fill="#8bf2f1"/>
  <use xlink:href="#f" fill="#f5d531"/>
  <use xlink:href="#g" fill="#8bf2f1"/>
  <use xlink:href="#h" fill="#9cfbf7"/>
  <use xlink:href="#i" fill="#9cfbf7"/>
  <use xlink:href="#j" fill="#f5d531"/>
  <use xlink:href="#k" fill="#f3d21a"/>
  <use xlink:href="#k" fill-opacity="0" stroke="#f2c821" stroke-width="9"/>
  <use xlink:href="#l" fill="#f5d531"/>
  <use xlink:href="#m" fill="#ffe041"/>
  <use xlink:href="#n" fill-opacity="0" stroke="#9f6a12" stroke-width="3"/>
  <use xlink:href="#o" fill-opacity="0" stroke="#9f6a12" stroke-width="3"/>
  <use xlink:href="#p" opacity=".73" fill="#ff6000"/>
  <use xlink:href="#q" opacity=".73" fill="#ff6000"/>
  <use xlink:href="#r" fill="#f9d232"/>
  <use xlink:href="#s" fill="#f5d531"/>
  <use xlink:href="#t" fill-opacity="0" stroke="#9f6a12" stroke-width="3"/>
  <use xlink:href="#u" fill="#f2c821"/>
  <use xlink:href="#v" fill="#f2c821"/>
  <use xlink:href="#w" fill="#f2c821"/>
  <g>
    <use xlink:href="#x" fill="#f2c821"/>
  </g>
</svg>